<?xml version="1.0" encoding="utf-8"?>
<!-- Generator: Adobe Illustrator 24.3.0, SVG Export Plug-In . SVG Version: 6.00 Build 0)  -->
<svg version="1.1" xmlns="http://www.w3.org/2000/svg" xmlns:xlink="http://www.w3.org/1999/xlink" x="0px" y="0px"
	preserveAspectRatio="none" viewBox="0 0 2160 3272.2" style="enable-background:new 0 0 2160 3272.2;" xml:space="preserve">
<style type="text/css">
	.st0{fill:#D5EFFF;}
	.st1{fill:#FFECEC;}
	.st2{fill:#FFECEC;stroke:#E72000;stroke-miterlimit:10;}
	.st3{fill:#FFFCEB;}
	.st4{fill:#889BD3;stroke:#BEDFFF;stroke-miterlimit:10;}
	.st5{display:none;}
	.st6{display:inline;}
	.st7{fill-rule:evenodd;clip-rule:evenodd;fill:#BFD68E;}
	.st8{fill:#BFD68E;}
	.st9{display:inline;fill-rule:evenodd;clip-rule:evenodd;fill:#FCF2AC;}
	.st10{display:inline;fill:#FFB164;}
	.st11{display:inline;fill:#B57C48;}
	.st12{display:inline;fill:#E8AAB4;}
	.st13{display:inline;fill:#FFC5D0;}
	.st14{display:inline;fill:#FFFFFF;}
	.st15{fill:#FFFFFF;}
</style>
<g id="Layer_1">
	<g id="Layer_1_2_">
		<g id="Layer_1_1_">
		</g>
		<g id="Layer_2_1_">
			<g>
				<path class="st0" d="M2160,3776H0c0-163.5,0-327.1,0-490.6C0,2319,0,1352.5,0,386.1C0,368,0,350,0,331.9c0-21.8,0-43.6,0-65.4
					C0,156.4,0,46.2,0-64c720,0,1440,0,2160,0V3776z"/>
			</g>
			<path class="st0" d="M487,3200c-73.3-24.7-146.7-49.3-220-74"/>
		</g>
		<g id="Layer_4">
			<path class="st1" d="M2,307c257.6-101.4,443.3-87.8,560-61c302.8,69.4,350.8,274.9,718,363c84.1,20.2,264.1,61.1,482,4
				c197.7-51.8,331.7-159.5,400-223.5V-76H2C2,51.7,2,179.3,2,307z"/>
			<path class="st2" d="M2395.5,1001.5"/>
			<path class="st2" d="M2374.5,813.5"/>
		</g>
		<g id="Layer_3">
			<path class="st3" d="M2,248.5c130.6-50.2,332.3-104.9,560-61c250.6,48.3,274.9,166.4,589,257c110.2,31.8,374.7,104.6,686,25
				c144.5-37,254.8-95.5,325-139V-135H2V248.5z"/>
			<path class="st4" d="M2415.5,785.5"/>
			<path class="st4" d="M2374.5,687.5"/>
		</g>
		<g id="Layer_5" class="st5">
			<g class="st6">
				<g id="layer1">
					<path id="path4092" class="st7" d="M40.5,3774.1c0.1-5.2,0.1-10.4,0-15.7c-0.1-3.7-0.3-7.5-0.5-11.2
						c-1.3-23.1-4.9-45.2-11-65.5s-14.7-38.7-25.2-54.8c-9.6-14.9-20.7-27.8-31.9-38.4c-11.2-10.6-22.5-19-32.5-25.5
						c-22.6-11.6-35.5-19.5-34.3-21.7c1.3-2.2,16.7,1.6,43.5,10.4c12.3,5.5,26.4,13.4,40.5,24.1c14.1,10.7,28.3,24.3,40.6,40.5
						c13,17.3,23.8,37.3,31.4,59.3s12.2,45.9,13.5,70.6c0.2,4,0.3,8,0.3,12c0.1,5.4,0,10.7-0.2,16L40.5,3774.1L40.5,3774.1z"/>
					<path id="path4090" class="st7" d="M152.8,3774.1c0.7-5.1,1.5-10.3,2.1-15.5c3.6-30.9,4.8-61,3.7-89.3
						c-1.2-33.2-5.5-64.1-11.2-91.6s-12.9-51.7-19.5-71.7s-12.7-36-16.4-47.1c-3.7-11.2-5.1-17.6-2.7-18.4
						c2.4-0.9,8.3,3.9,16.4,13.9c8.1,9.9,18.5,25.1,29.1,44.9c10.6,19.8,21.4,44.3,30.1,72.8c8.8,28.5,15.6,60.8,18.2,95.8
						c2.3,29.8,1.8,61.5-2,93.9c-0.5,4.1-1,8.2-1.6,12.3L152.8,3774.1L152.8,3774.1z"/>
					<path id="path4088" class="st7" d="M250.7,3774.1c9.2-21.8,18.7-42.5,27.5-62c9.4-20.9,17.9-40.5,24.9-58.4
						c4-10.5,7.6-20.4,10.4-29.6c2.9-9.2,5-17.7,6.7-25.5c1.6-7.7,2.6-14.7,3.3-20.8c0.7-6.1,1-11.3,1.2-15.6s0.4-7.7,0.8-10.1
						s0.9-3.6,1.8-3.8c1-0.2,2.3,0.8,3.8,3s3.2,5.5,4.7,9.9s2.9,9.9,3.9,16.4c0.9,6.5,1.4,14.1,1.1,22.4c-0.3,8.4-1.2,17.7-2.9,27.6
						c-1.7,9.9-4.3,20.5-7.4,31.6c-5.4,18.9-12.7,39.3-21.2,60.7c-6.9,17.4-14.7,35.6-22.5,54.2L250.7,3774.1L250.7,3774.1z"/>
					<path id="path4086" class="st7" d="M401.2,3774.1c0.2-3.9,0.5-7.8,0.6-11.7c0-0.4,0-0.8,0-1.2c1.5-33.3,2.1-65.1,3-94.2
						c0.8-29.1,1.9-55.4,3.4-77.5s3.4-40,5.8-52.3c2.4-12.4,5.2-19.2,8-19.2s5.6,6.8,8.1,19.1c2.6,12.3,5,30.1,7.2,52.1
						c2.3,22,4.3,48.4,5.6,77.6s1.7,61.5,0.3,95.5c0,0.4,0,0.8,0,1.2c-0.2,3.6-0.4,7.1-0.6,10.6L401.2,3774.1L401.2,3774.1z"/>
					<path id="path4038" class="st7" d="M509.4,3774.1c0.9-16.7,2.7-32.7,5.6-47.3c3.5-17.8,8.3-33.6,13.7-46.4s11.3-22.9,16.1-29.5
						s8.7-9.9,10.5-9.3c1.8,0.6,1.4,4.9-0.2,12.2s-4.4,17.5-7.1,30.3s-5.3,28-7.2,45.2c-1.5,13.9-2.5,29.1-3.1,45L509.4,3774.1
						L509.4,3774.1z"/>
					<path id="path4082" class="st7" d="M870.8,3504.4c-1.1,0-2.8,1-5.1,3.1c-2.6,2.4-5.9,6.3-9.5,11.5s-7.5,11.7-11.2,19.7
						s-7.2,17.3-9.9,27.8c-2.5,9.6-4.3,20.2-5.2,31.6s-0.9,23.7,0.1,36.4c1.6,18.9,5.1,38.9,10.8,59.6c5.6,20.7,13.3,42.1,22,63.8
						c1.8,4.4,3.6,8.7,5.4,13.1c0.7,1.7,1.4,3.4,2.2,5h36c-1.8-4.3-3.6-8.6-5.4-13c-1.7-4.3-3.4-8.6-5.2-12.9
						c-8.5-21.3-16.2-41.9-22.3-61.6s-10.6-38.4-13.3-56.1c-1.8-11.9-2.9-23.3-3.2-33.9s0.2-20.5,1.2-29.6
						c2.1-19.8,6.7-35.6,10-46.5c1.7-5.5,2.9-9.8,3.5-12.8s0.6-4.8-0.4-5.1C871.1,3504.4,870.9,3504.4,870.8,3504.4L870.8,3504.4z"
						/>
					<path id="path4080" class="st7" d="M696.6,3506.3c-0.4-0.1-0.9,0.1-1.3,0.5c-0.4,0.4-0.5,1.3-0.7,1.9c-0.2,1-0.2,2.4,0,4
						c0.4,3.1,1.6,7.2,3.3,12.2c3.5,9.8,9.3,23.3,16.3,39.8c13.8,32.5,32.5,77.1,47.1,129.7c7.1,25.6,13,53.1,17,81.8H820
						c-4.4-31.4-11.9-61.2-20.9-88.6c-8.9-27.1-19.4-51.8-30.2-73.6s-21.7-40.8-31.7-56.4c-10.2-15.9-19.3-28.2-26.3-36.8
						c-3.6-4.4-6.5-7.7-8.8-10.1c-1.2-1.2-2.2-2.1-3-2.8c-0.5-0.6-1.1-0.7-1.5-0.9C697.2,3506.6,697,3506.3,696.6,3506.3z"/>
					<path id="path4078" class="st7" d="M620.9,3558.6c-2.2,0.6-1.4,7.4,1.4,19.3s7.7,28.8,13.3,49.7c5.7,20.9,12.1,45.8,17,73.5
						c4.1,23.2,7.1,48.4,7.5,74.8h34.1c-0.9-28.1-5.1-54.6-10.9-78.6c-6.9-28.6-15.8-53.8-24.7-74.5c-8.8-20.7-17.4-37-24.1-48
						C627.9,3563.8,623.1,3558.1,620.9,3558.6z"/>
					<path id="path4076" class="st7" d="M966.3,3564c-2.5,0-4.9,5.5-7.3,15.2s-4.7,23.8-6.9,41.2c-2.3,17.4-4.4,38.2-6.1,61.4
						c-1.7,23.2-2.8,48.8-2.2,75.8c0,0.9,0.1,1.8,0.1,2.7c0.1,4.7,0.3,9.3,0.6,13.9h36.9c-0.2-4.8-0.4-9.6-0.6-14.5
						c0-0.9-0.1-1.7-0.1-2.6c-0.7-26.3-0.6-51.6-0.8-74.6c-0.2-23.1-0.5-43.9-1.6-61.4s-2.8-31.8-4.8-41.6
						C971.4,3569.5,968.9,3564,966.3,3564z"/>
					<path id="path4068" class="st7" d="M1000.2,3585.8c-2.3,0.5-2.1,6.4-0.5,16.6c1.5,10.2,4.5,24.7,7.5,42.5
						c3,17.9,6.1,39.2,8.6,63c2.2,21,3.8,43.9,5.1,68h34.5c-1.4-24.9-4.1-48.9-8-70.6c-4.3-24.4-10.1-46.1-16.4-64
						s-13-32.1-18.5-41.6C1006.9,3590.2,1002.5,3585.3,1000.2,3585.8z"/>
					<rect id="rect4094" x="1.9" y="3741.6" class="st8" width="2201.1" height="34.4"/>
					<path id="path2886" class="st7" d="M40.5,3774.1c0.1-5.2,0.1-10.4,0-15.7c-0.1-3.7-0.3-7.5-0.5-11.2
						c-1.3-23.1-4.9-45.2-11-65.5s-14.7-38.7-25.2-54.8c-9.6-14.9-20.7-27.8-31.9-38.4c-11.2-10.6-22.5-19-32.5-25.5
						c-22.6-11.6-35.5-19.5-34.3-21.7c1.3-2.2,16.7,1.6,43.5,10.4c12.3,5.5,26.4,13.4,40.5,24.1c14.1,10.7,28.3,24.3,40.6,40.5
						c13,17.3,23.8,37.3,31.4,59.3s12.2,45.9,13.5,70.6c0.2,4,0.3,8,0.3,12c0.1,5.4,0,10.7-0.2,16L40.5,3774.1L40.5,3774.1z"/>
					<path id="path2888" class="st7" d="M152.8,3774.1c0.7-5.1,1.5-10.3,2.1-15.5c3.6-30.9,4.8-61,3.7-89.3
						c-1.2-33.2-5.5-64.1-11.2-91.6s-12.9-51.7-19.5-71.7s-12.7-36-16.4-47.1c-3.7-11.2-5.1-17.6-2.7-18.4
						c2.4-0.9,8.3,3.9,16.4,13.9c8.1,9.9,18.5,25.1,29.1,44.9c10.6,19.8,21.4,44.3,30.1,72.8c8.8,28.5,15.6,60.8,18.2,95.8
						c2.3,29.8,1.8,61.5-2,93.9c-0.5,4.1-1,8.2-1.6,12.3L152.8,3774.1L152.8,3774.1z"/>
					<path id="path2890" class="st7" d="M250.7,3774.1c9.2-21.8,18.7-42.5,27.5-62c9.4-20.9,17.9-40.5,24.9-58.4
						c4-10.5,7.6-20.4,10.4-29.6c2.9-9.2,5-17.7,6.7-25.5c1.6-7.7,2.6-14.7,3.3-20.8c0.7-6.1,1-11.3,1.2-15.6s0.4-7.7,0.8-10.1
						s0.9-3.6,1.8-3.8c1-0.2,2.3,0.8,3.8,3s3.2,5.5,4.7,9.9s2.9,9.9,3.9,16.4c0.9,6.5,1.4,14.1,1.1,22.4c-0.3,8.4-1.2,17.7-2.9,27.6
						c-1.7,9.9-4.3,20.5-7.4,31.6c-5.4,18.9-12.7,39.3-21.2,60.7c-6.9,17.4-14.7,35.6-22.5,54.2L250.7,3774.1L250.7,3774.1z"/>
					<path id="path2892" class="st7" d="M401.2,3774.1c0.2-3.9,0.5-7.8,0.6-11.7c0-0.4,0-0.8,0-1.2c1.5-33.3,2.1-65.1,3-94.2
						c0.8-29.1,1.9-55.4,3.4-77.5s3.4-40,5.8-52.3c2.4-12.4,5.2-19.2,8-19.2s5.6,6.8,8.1,19.1c2.6,12.3,5,30.1,7.2,52.1
						c2.3,22,4.3,48.4,5.6,77.6s1.7,61.5,0.3,95.5c0,0.4,0,0.8,0,1.2c-0.2,3.6-0.4,7.1-0.6,10.6L401.2,3774.1L401.2,3774.1z"/>
					<path id="path2894" class="st7" d="M509.4,3774.1c0.9-16.7,2.7-32.7,5.6-47.3c3.5-17.8,8.3-33.6,13.7-46.4s11.3-22.9,16.1-29.5
						s8.7-9.9,10.5-9.3c1.8,0.6,1.4,4.9-0.2,12.2s-4.4,17.5-7.1,30.3s-5.3,28-7.2,45.2c-1.5,13.9-2.5,29.1-3.1,45L509.4,3774.1
						L509.4,3774.1z"/>
					<path id="path2896" class="st7" d="M870.8,3504.4c-1.1,0-2.8,1-5.1,3.1c-2.6,2.4-5.9,6.3-9.5,11.5s-7.5,11.7-11.2,19.7
						s-7.2,17.3-9.9,27.8c-2.5,9.6-4.3,20.2-5.2,31.6s-0.9,23.7,0.1,36.4c1.6,18.9,5.1,38.9,10.8,59.6c5.6,20.7,13.3,42.1,22,63.8
						c1.8,4.4,3.6,8.7,5.4,13.1c0.7,1.7,1.4,3.4,2.2,5h36c-1.8-4.3-3.6-8.6-5.4-13c-1.7-4.3-3.4-8.6-5.2-12.9
						c-8.5-21.3-16.2-41.9-22.3-61.6s-10.6-38.4-13.3-56.1c-1.8-11.9-2.9-23.3-3.2-33.9s0.2-20.5,1.2-29.6
						c2.1-19.8,6.7-35.6,10-46.5c1.7-5.5,2.9-9.8,3.5-12.8s0.6-4.8-0.4-5.1C871.1,3504.4,870.9,3504.4,870.8,3504.4L870.8,3504.4z"
						/>
					<path id="path2898" class="st7" d="M696.6,3506.3c-0.4-0.1-0.9,0.1-1.3,0.5c-0.4,0.4-0.5,1.3-0.7,1.9c-0.2,1-0.2,2.4,0,4
						c0.4,3.1,1.6,7.2,3.3,12.2c3.5,9.8,9.3,23.3,16.3,39.8c13.8,32.5,32.5,77.1,47.1,129.7c7.1,25.6,13,53.1,17,81.8H820
						c-4.4-31.4-11.9-61.2-20.9-88.6c-8.9-27.1-19.4-51.8-30.2-73.6s-21.7-40.8-31.7-56.4c-10.2-15.9-19.3-28.2-26.3-36.8
						c-3.6-4.4-6.5-7.7-8.8-10.1c-1.2-1.2-2.2-2.1-3-2.8c-0.5-0.6-1.1-0.7-1.5-0.9C697.2,3506.6,697,3506.3,696.6,3506.3z"/>
					<path id="path2900" class="st7" d="M620.9,3558.6c-2.2,0.6-1.4,7.4,1.4,19.3s7.7,28.8,13.3,49.7c5.7,20.9,12.1,45.8,17,73.5
						c4.1,23.2,7.1,48.4,7.5,74.8h34.1c-0.9-28.1-5.1-54.6-10.9-78.6c-6.9-28.6-15.8-53.8-24.7-74.5c-8.8-20.7-17.4-37-24.1-48
						C627.9,3563.8,623.1,3558.1,620.9,3558.6z"/>
					<path id="path2902" class="st7" d="M966.3,3564c-2.5,0-4.9,5.5-7.3,15.2s-4.7,23.8-6.9,41.2c-2.3,17.4-4.4,38.2-6.1,61.4
						c-1.7,23.2-2.8,48.8-2.2,75.8c0,0.9,0.1,1.8,0.1,2.7c0.1,4.7,0.3,9.3,0.6,13.9h36.9c-0.2-4.8-0.4-9.6-0.6-14.5
						c0-0.9-0.1-1.7-0.1-2.6c-0.7-26.3-0.6-51.6-0.8-74.6c-0.2-23.1-0.5-43.9-1.6-61.4s-2.8-31.8-4.8-41.6
						C971.4,3569.5,968.9,3564,966.3,3564z"/>
					<path id="path2904" class="st7" d="M1000.2,3585.8c-2.3,0.5-2.1,6.4-0.5,16.6c1.5,10.2,4.5,24.7,7.5,42.5
						c3,17.9,6.1,39.2,8.6,63c2.2,21,3.8,43.9,5.1,68h34.5c-1.4-24.9-4.1-48.9-8-70.6c-4.3-24.4-10.1-46.1-16.4-64
						s-13-32.1-18.5-41.6C1006.9,3590.2,1002.5,3585.3,1000.2,3585.8z"/>
					<path id="path2906" class="st7" d="M68.3,3747.6c0.1-5.3,0.1-10.7,0-16.1c-0.1-3.8-0.3-7.7-0.6-11.5
						c-1.3-23.7-5-46.4-11.3-67.3c-6.3-20.8-15.1-39.8-25.9-56.3c-9.8-15.3-21.2-28.5-32.7-39.4s-23.1-19.5-33.4-26.2
						c-23.2-11.9-36.5-20-35.3-22.3c1.3-2.3,17.2,1.6,44.7,10.7c12.6,5.7,27.1,13.8,41.6,24.8s29,24.9,41.7,41.6
						c13.3,17.7,24.4,38.3,32.3,60.9s12.5,47.2,13.8,72.4c0.2,4.1,0.3,8.2,0.3,12.3c0.1,5.6,0,11-0.2,16.5L68.3,3747.6L68.3,3747.6z
						"/>
					<path id="path2908" class="st7" d="M183.6,3747.6c0.8-5.3,1.6-10.6,2.2-15.9c3.7-31.8,4.9-62.6,3.8-91.7
						c-1.2-34.1-5.6-65.8-11.5-94.1s-13.2-53.1-20.1-73.6c-6.8-20.6-13-36.9-16.8-48.4s-5.2-18-2.8-18.9s8.5,4,16.8,14.3
						c8.3,10.2,19,25.8,29.9,46.1c10.9,20.4,21.9,45.5,31,74.8c9,29.2,16,62.5,18.7,98.4c2.3,30.6,1.8,63.1-2.1,96.5
						c-0.5,4.3-1,8.4-1.6,12.7L183.6,3747.6L183.6,3747.6z"/>
					<path id="path2910" class="st7" d="M284.1,3747.6c9.5-22.4,19.2-43.7,28.2-63.6c9.7-21.5,18.4-41.6,25.5-60
						c4.1-10.8,7.8-20.9,10.7-30.4c2.9-9.5,5.2-18.2,6.9-26.2c1.6-7.9,2.7-15.1,3.4-21.4c0.7-6.3,1-11.6,1.2-16s0.4-7.9,0.8-10.4
						s0.9-3.7,1.9-3.9s2.3,0.9,3.9,3.1c1.5,2.2,3.3,5.6,4.9,10.2c1.6,4.5,3,10.2,4,16.9s1.4,14.4,1.1,23s-1.2,18.2-3,28.3
						c-1.8,10.2-4.4,21.1-7.6,32.4c-5.6,19.4-13,40.3-21.8,62.4c-7.1,17.9-15.1,36.5-23.1,55.6L284.1,3747.6L284.1,3747.6z"/>
					<path id="path2912" class="st7" d="M438.7,3747.6c0.2-4,0.5-8,0.7-12c0-0.4,0-0.8,0-1.2c1.5-34.2,2.2-66.9,3-96.7
						c0.8-29.9,1.9-56.9,3.5-79.6c1.5-22.7,3.5-41,6-53.8s5.3-19.8,8.2-19.8c2.9,0,5.7,7,8.4,19.6c2.6,12.6,5.1,30.9,7.4,53.6
						c2.3,22.6,4.4,49.7,5.7,79.7s1.8,63.2,0.3,98c0,0.4,0,0.8,0,1.2c-0.2,3.7-0.5,7.3-0.7,10.9L438.7,3747.6L438.7,3747.6z"/>
					<path id="path2914" class="st7" d="M549.8,3747.6c0.9-17.1,2.8-33.6,5.7-48.6c3.6-18.2,8.6-34.5,14.1-47.7s11.6-23.5,16.6-30.3
						s8.9-10.1,10.7-9.6c1.8,0.6,1.5,5-0.2,12.5s-4.5,18-7.3,31.1s-5.5,28.8-7.4,46.4c-1.5,14.3-2.5,29.9-3.2,46.2L549.8,3747.6
						L549.8,3747.6z"/>
					<path id="path2916" class="st7" d="M920.9,3470.6c-1.1,0-2.9,1-5.2,3.2c-2.7,2.5-6,6.5-9.7,11.8s-7.7,12.1-11.5,20.2
						s-7.4,17.7-10.2,28.5c-2.5,9.9-4.4,20.8-5.3,32.5c-0.9,11.7-1,24.3,0.1,37.4c1.6,19.4,5.3,40,11.1,61.3s13.6,43.3,22.6,65.5
						c1.8,4.5,3.7,9,5.5,13.4c0.7,1.8,1.5,3.4,2.2,5.2h36.9c-1.9-4.5-3.7-8.8-5.5-13.3c-1.8-4.4-3.5-8.8-5.3-13.2
						c-8.7-21.8-16.6-43.1-22.9-63.3s-10.9-39.5-13.7-57.6c-1.9-12.2-3-23.9-3.3-34.9c-0.3-10.9,0.2-21.1,1.2-30.4
						c2.2-20.3,6.9-36.5,10.3-47.8c1.7-5.6,3-10,3.7-13.1s0.6-4.9-0.4-5.3C921.3,3470.7,921.1,3470.6,920.9,3470.6L920.9,3470.6z"/>
					<path id="path2918" class="st7" d="M742.1,3472.6c-0.4-0.1-0.9,0.1-1.3,0.5s-0.6,1.3-0.7,1.9c-0.2,1.1-0.2,2.5,0,4.1
						c0.4,3.2,1.7,7.4,3.4,12.5c3.5,10.1,9.5,24,16.7,40.9c14.2,33.4,33.4,79.1,48.4,133.2c7.3,26.3,13.3,54.5,17.5,84h42.8
						c-4.5-32.2-12.2-62.9-21.5-91c-9.2-27.8-20-53.2-31-75.6s-22.3-41.9-32.6-57.9c-10.5-16.3-19.8-29-27-37.8
						c-3.7-4.5-6.7-7.9-9-10.4c-1.2-1.3-2.2-2.2-3-2.9c-0.5-0.6-1.2-0.7-1.6-0.9C742.7,3472.9,742.5,3472.6,742.1,3472.6z"/>
					<path id="path2920" class="st7" d="M664.3,3526.4c-2.3,0.6-1.5,7.6,1.4,19.8s7.9,29.6,13.7,51.1s12.4,47,17.5,75.5
						c4.2,23.8,7.3,49.7,7.7,76.9h35c-1-28.8-5.2-56.1-11.2-80.8c-7-29.4-16.3-55.2-25.3-76.5s-17.9-38-24.8-49.3
						C671.5,3531.7,666.5,3525.8,664.3,3526.4z"/>
					<path id="path2922" class="st7" d="M1019.1,3531.8c-2.6,0-5.1,5.6-7.5,15.6s-4.8,24.4-7.1,42.3c-2.3,17.9-4.5,39.2-6.3,63
						c-1.7,23.8-2.9,50.1-2.3,77.8c0,0.9,0.1,1.8,0.1,2.7c0.1,4.8,0.3,9.6,0.6,14.3h37.9c-0.2-4.9-0.4-9.9-0.6-14.9
						c0-0.9-0.1-1.7-0.1-2.6c-0.7-27-0.6-53-0.8-76.6c-0.2-23.7-0.6-45.1-1.7-63.1s-2.8-32.6-5-42.7
						C1024.3,3537.5,1021.7,3531.8,1019.1,3531.8z"/>
					<path id="path2924" class="st7" d="M1053.9,3554.3c-2.3,0.6-2.1,6.6-0.6,17.1s4.6,25.3,7.7,43.7s6.3,40.3,8.8,64.7
						c2.2,21.5,3.9,45.1,5.2,69.8h35.4c-1.5-25.6-4.2-50.2-8.2-72.5c-4.5-25-10.4-47.3-16.8-65.8s-13.3-33-19-42.8
						C1060.7,3558.8,1056.2,3553.7,1053.9,3554.3z"/>
					<path id="path2926" class="st7" d="M137.5,3755.8c0.1-4.6,0.1-9.2,0-13.9c-0.1-3.3-0.3-6.6-0.5-9.9c-1.1-20.4-4.3-40-9.7-58
						s-13-34.3-22.3-48.5c-8.5-13.2-18.3-24.6-28.2-34s-19.9-16.8-28.8-22.6c-20-10.2-31.5-17.3-30.4-19.2s14.8,1.4,38.5,9.2
						c10.9,4.9,23.3,11.9,35.8,21.4s25,21.5,35.9,35.8c11.5,15.3,21,33,27.8,52.5s10.8,40.7,11.9,62.4c0.2,3.6,0.3,7.1,0.3,10.6
						c0.1,4.8,0,9.5-0.2,14.2H137.5L137.5,3755.8z"/>
					<path id="path2928" class="st7" d="M236.9,3755.8c0.6-4.6,1.4-9.1,1.9-13.8c3.2-27.4,4.2-54,3.3-79.1
						c-1.1-29.4-4.8-56.7-9.9-81.1c-5.1-24.4-11.4-45.7-17.3-63.5s-11.2-31.9-14.5-41.7c-3.3-9.9-4.5-15.5-2.4-16.3
						s7.3,3.5,14.5,12.3s16.4,22.2,25.8,39.8c9.4,17.5,18.9,39.3,26.7,64.4c7.8,25.2,13.8,53.9,16.1,84.8c2,26.4,1.6,54.4-1.8,83.2
						c-0.4,3.7-0.9,7.3-1.4,10.9L236.9,3755.8L236.9,3755.8z"/>
					<path id="path2930" class="st7" d="M323.6,3755.8c8.1-19.3,16.6-37.6,24.3-54.9c8.3-18.5,15.9-35.8,22-51.7
						c3.6-9.3,6.7-18,9.3-26.2s4.5-15.7,5.9-22.6c1.4-6.8,2.4-13,3-18.4s0.9-10,1-13.8c0.2-3.8,0.4-6.8,0.7-8.9
						c0.3-2.1,0.8-3.2,1.6-3.4c0.8-0.1,2,0.7,3.3,2.6s2.8,4.9,4.2,8.8s2.6,8.8,3.4,14.6s1.2,12.4,1,19.8c-0.2,7.4-1,15.6-2.6,24.4
						c-1.5,8.8-3.8,18.2-6.6,27.9c-4.8,16.7-11.2,34.8-18.8,53.8c-6.1,15.4-13,31.5-19.9,48L323.6,3755.8L323.6,3755.8z"/>
					<path id="path2932" class="st7" d="M456.8,3755.8c0.2-3.4,0.4-6.9,0.6-10.4c0-0.4,0-0.7,0-1.1c1.3-29.5,1.9-57.6,2.6-83.4
						c0.7-25.7,1.6-49.1,3-68.6s3-35.4,5.1-46.3c2.1-10.9,4.6-17,7.1-17s4.9,6,7.2,16.9c2.3,10.9,4.4,26.6,6.4,46.2
						s3.8,42.8,4.9,68.7s1.5,54.5,0.2,84.5c0,0.4,0,0.7,0,1.1c-0.1,3.2-0.4,6.3-0.6,9.4L456.8,3755.8L456.8,3755.8z"/>
					<path id="path2934" class="st7" d="M552.6,3755.8c0.8-14.8,2.4-28.9,4.9-41.9c3.1-15.7,7.4-29.7,12.2-41.1
						c4.8-11.4,10-20.3,14.3-26.1c4.3-5.9,7.7-8.8,9.3-8.3s1.3,4.3-0.2,10.8s-3.9,15.5-6.3,26.8c-2.4,11.3-4.7,24.8-6.4,40
						c-1.3,12.3-2.2,25.8-2.8,39.9L552.6,3755.8L552.6,3755.8z"/>
					<path id="path2936" class="st7" d="M872.5,3517.1c-1,0-2.5,0.9-4.5,2.8c-2.3,2.1-5.2,5.6-8.4,10.2c-3.2,4.6-6.6,10.4-9.9,17.4
						s-6.4,15.3-8.8,24.6c-2.2,8.5-3.8,17.9-4.6,28s-0.8,20.9,0.1,32.3c1.4,16.7,4.5,34.4,9.5,52.8s11.7,37.3,19.4,56.4
						c1.6,3.9,3.2,7.7,4.8,11.6c0.6,1.5,1.3,3,1.9,4.5h31.8c-1.6-3.8-3.2-7.6-4.8-11.5c-1.5-3.8-3-7.6-4.6-11.4
						c-7.5-18.8-14.3-37.1-19.7-54.6s-9.4-34-11.8-49.6c-1.6-10.6-2.6-20.6-2.9-30.1c-0.3-9.4,0.2-18.1,1-26.2
						c1.9-17.5,5.9-31.5,8.9-41.2c1.5-4.9,2.6-8.7,3.2-11.3c0.6-2.7,0.5-4.2-0.4-4.5C872.7,3517.1,872.6,3517.1,872.5,3517.1
						L872.5,3517.1z"/>
					<path id="path2938" class="st7" d="M718.3,3518.7c-0.3-0.1-0.8,0.1-1.1,0.4s-0.5,1.1-0.6,1.7c-0.2,0.9-0.2,2.1,0,3.5
						c0.4,2.7,1.4,6.4,3,10.8c3,8.7,8.2,20.7,14.4,35.2c12.2,28.7,28.8,68.2,41.7,114.8c6.3,22.6,11.5,47,15.1,72.4h36.9
						c-3.9-27.8-10.5-54.2-18.5-78.4c-7.9-24-17.2-45.9-26.7-65.2s-19.2-36.1-28.1-49.9c-9-14.1-17.1-25-23.3-32.6
						c-3.2-3.9-5.7-6.8-7.8-8.9c-1-1.1-1.9-1.9-2.6-2.4c-0.5-0.6-1-0.6-1.4-0.8C718.8,3519,718.6,3518.8,718.3,3518.7z"/>
					<path id="path2940" class="st7" d="M651.3,3565.1c-1.9,0.5-1.3,6.5,1.2,17s6.8,25.5,11.8,44s10.7,40.5,15.1,65.1
						c3.6,20.5,6.3,42.9,6.7,66.3h30.2c-0.8-24.9-4.5-48.3-9.6-69.6c-6.1-25.3-14-47.6-21.8-66s-15.4-32.7-21.3-42.5
						C657.5,3569.7,653.2,3564.6,651.3,3565.1z"/>
					<path id="path2942" class="st7" d="M957,3569.8c-2.3,0-4.4,4.9-6.4,13.5c-2.1,8.6-4.1,21-6.1,36.4s-3.9,33.8-5.4,54.3
						s-2.5,43.2-1.9,67.1c0,0.8,0.1,1.6,0.1,2.4c0.1,4.1,0.3,8.2,0.5,12.3h32.7c-0.2-4.3-0.4-8.5-0.5-12.9c0-0.8-0.1-1.5-0.1-2.3
						c-0.6-23.3-0.5-45.7-0.7-66.1c-0.2-20.4-0.5-38.8-1.4-54.4c-1-15.6-2.4-28.1-4.3-36.8C961.5,3574.7,959.3,3569.8,957,3569.8z"
						/>
					<path id="path2944" class="st7" d="M987,3589.2c-2,0.5-1.8,5.7-0.5,14.7s4,21.8,6.7,37.7s5.4,34.7,7.6,55.8
						c1.9,18.6,3.4,38.9,4.5,60.2h30.5c-1.3-22.1-3.6-43.3-7.1-62.5c-3.8-21.6-9-40.8-14.5-56.7s-11.5-28.4-16.4-36.9
						C993,3593,989,3588.7,987,3589.2z"/>
					<path id="path2948" class="st7" d="M630.4,3755.8c-0.7-4.6-1.4-9.1-1.9-13.8c-3.2-27.4-4.2-54-3.3-79.1
						c1.1-29.4,4.8-56.7,9.9-81.1c5.1-24.4,11.4-45.7,17.3-63.5s11.2-31.9,14.5-41.7c3.3-9.9,4.5-15.5,2.4-16.3s-7.3,3.5-14.5,12.3
						s-16.4,22.2-25.8,39.8c-9.4,17.5-18.9,39.3-26.7,64.4c-7.8,25.2-13.8,53.9-16.1,84.8c-2,26.4-1.6,54.4,1.8,83.2
						c0.4,3.7,0.9,7.3,1.4,10.9L630.4,3755.8L630.4,3755.8z"/>
					<path id="path2956" class="st7" d="M508.2,3517.1c1,0,2.5,0.9,4.5,2.8c2.3,2.1,5.2,5.6,8.4,10.2c3.2,4.6,6.6,10.4,9.9,17.4
						c3.3,7,6.4,15.3,8.8,24.6c2.2,8.5,3.8,17.9,4.6,28s0.8,20.9-0.1,32.3c-1.4,16.7-4.5,34.4-9.5,52.8s-11.7,37.3-19.4,56.4
						c-1.6,3.9-3.2,7.7-4.8,11.6c-0.6,1.5-1.3,3-1.9,4.5h-31.8c1.6-3.8,3.2-7.6,4.8-11.5c1.5-3.8,3-7.6,4.6-11.4
						c7.5-18.8,14.3-37.1,19.7-54.6s9.4-34,11.8-49.6c1.6-10.6,2.6-20.6,2.9-30.1c0.3-9.4-0.2-18.1-1-26.2
						c-1.9-17.5-5.9-31.5-8.9-41.2c-1.5-4.9-2.6-8.7-3.1-11.3c-0.6-2.7-0.5-4.2,0.4-4.5C508,3517.1,508.1,3517.1,508.2,3517.1
						L508.2,3517.1z"/>
					<path id="path2958" class="st7" d="M955.3,3531.9c0.3-0.1,0.8,0.1,1.1,0.4s0.5,1.1,0.6,1.7c0.2,0.9,0.2,2.1,0,3.5
						c-0.4,2.7-1.4,6.4-3,10.8c-3,8.7-8.2,20.7-14.4,35.2c-12.2,28.7-28.8,68.2-41.7,114.8c-6.3,22.6-11.5,47-15.1,72.4H846
						c3.9-27.8,10.5-54.2,18.5-78.4c7.9-24,17.2-45.9,26.7-65.2s19.2-36.1,28.1-49.9c9-14.1,17.1-25,23.3-32.6
						c3.2-3.9,5.7-6.8,7.8-8.9c1-1.1,1.9-1.9,2.6-2.4c0.5-0.6,1-0.6,1.4-0.8C954.7,3532.2,954.9,3532,955.3,3531.9z"/>
					<path id="path2960" class="st7" d="M1111.9,3565.1c1.9,0.5,1.3,6.5-1.2,17s-6.8,25.5-11.8,44s-10.7,40.5-15.1,65.1
						c-3.6,20.5-6.3,42.9-6.7,66.3h-30.2c0.8-24.9,4.5-48.3,9.6-69.6c6.1-25.3,14-47.6,21.8-66s15.4-32.7,21.3-42.5
						C1105.7,3569.7,1110,3564.6,1111.9,3565.1z"/>
					<path id="path2962" class="st7" d="M351.3,3561.9c2.3,0,4.4,4.9,6.4,13.5c2.1,8.6,4.1,21,6.1,36.4s3.9,33.8,5.4,54.3
						s2.5,43.2,1.9,67.1c0,0.8-0.1,1.6-0.1,2.4c-0.1,4.1-0.3,8.2-0.5,12.3h-32.7c0.2-4.3,0.4-8.5,0.5-12.9c0-0.8,0.1-1.5,0.1-2.3
						c0.6-23.3,0.5-45.7,0.7-66.1c0.2-20.4,0.5-38.8,1.4-54.4c1-15.6,2.4-28.1,4.3-36.8S349,3561.9,351.3,3561.9z"/>
					<path id="path2964" class="st7" d="M576.3,3578.6c2,0.5,1.8,5.7,0.5,14.7s-4,21.8-6.7,37.7c-2.7,15.8-5.4,34.7-7.6,55.8
						c-1.9,18.6-3.4,38.9-4.5,60.2h-30.5c1.3-22.1,3.6-43.3,7-62.5c3.8-21.6,9-40.8,14.5-56.7s11.5-28.4,16.4-36.9
						C570.3,3582.4,574.3,3578.1,576.3,3578.6z"/>
					<path id="path2966" class="st7" d="M1074.2,3774.1c0.1-5.2,0.1-10.4,0-15.7c-0.1-3.7-0.3-7.5-0.5-11.2
						c-1.3-23.1-4.9-45.2-11-65.5s-14.7-38.7-25.2-54.8c-9.6-14.9-20.7-27.8-31.9-38.4c-11.2-10.6-22.5-19-32.5-25.5
						c-22.6-11.6-35.5-19.5-34.3-21.7c1.3-2.2,16.7,1.6,43.5,10.4c12.3,5.5,26.3,13.4,40.5,24.1c14.1,10.7,28.3,24.3,40.6,40.5
						c13,17.3,23.8,37.3,31.4,59.3c7.7,22,12.2,45.9,13.5,70.6c0.2,4,0.3,8,0.3,12c0.1,5.4,0,10.7-0.2,16L1074.2,3774.1
						L1074.2,3774.1z"/>
					<path id="path2968" class="st7" d="M1186.5,3774.1c0.7-5.1,1.5-10.3,2.2-15.5c3.6-30.9,4.8-61,3.7-89.3
						c-1.2-33.2-5.5-64.1-11.2-91.6s-12.9-51.7-19.5-71.7s-12.7-36-16.4-47.1s-5.1-17.6-2.7-18.4c2.4-0.9,8.3,3.9,16.4,13.9
						c8.1,9.9,18.5,25.1,29.1,44.9c10.6,19.8,21.3,44.3,30.2,72.8c8.8,28.5,15.6,60.8,18.2,95.8c2.3,29.8,1.8,61.5-2,93.9
						c-0.5,4.1-1,8.2-1.6,12.3L1186.5,3774.1L1186.5,3774.1z"/>
					<path id="path2970" class="st7" d="M1284.4,3774.1c9.2-21.8,18.7-42.5,27.5-62c9.4-20.9,17.9-40.5,24.9-58.4
						c4-10.5,7.6-20.4,10.4-29.6c2.9-9.2,5-17.7,6.7-25.5c1.6-7.7,2.7-14.7,3.3-20.8c0.7-6.1,1-11.3,1.2-15.6s0.4-7.7,0.8-10.1
						s0.9-3.6,1.8-3.8s2.3,0.8,3.8,3s3.2,5.5,4.7,9.9c1.6,4.4,2.9,9.9,3.9,16.4s1.4,14.1,1.1,22.4c-0.3,8.4-1.2,17.7-2.9,27.6
						c-1.7,9.9-4.3,20.5-7.4,31.6c-5.4,18.9-12.7,39.3-21.2,60.7c-6.9,17.4-14.7,35.6-22.5,54.2L1284.4,3774.1L1284.4,3774.1z"/>
					<path id="path2972" class="st7" d="M1790.4,3774.1c-0.2-3.9-0.5-7.8-0.7-11.7c0-0.4,0-0.8,0-1.2c-1.5-33.3-2.2-65.1-3-94.2
						c-0.8-29.1-1.9-55.4-3.4-77.5s-3.4-40-5.8-52.3c-2.4-12.4-5.2-19.2-8-19.2s-5.6,6.8-8.1,19.1c-2.6,12.3-5,30.1-7.2,52.1
						c-2.3,22-4.3,48.4-5.6,77.6s-1.7,61.5-0.3,95.5c0,0.4,0,0.8,0,1.2c0.2,3.6,0.4,7.1,0.7,10.6L1790.4,3774.1L1790.4,3774.1z"/>
					<path id="path2974" class="st7" d="M1682.2,3774.1c-0.9-16.7-2.7-32.7-5.6-47.3c-3.5-17.8-8.3-33.6-13.7-46.4
						s-11.3-22.9-16.1-29.5s-8.7-9.9-10.5-9.3c-1.8,0.6-1.4,4.9,0.2,12.2s4.4,17.5,7.1,30.3s5.3,28,7.2,45.2
						c1.5,13.9,2.5,29.1,3.1,45L1682.2,3774.1L1682.2,3774.1z"/>
					<path id="path2976" class="st7" d="M1904.4,3504.4c-1.1,0-2.8,1-5.1,3.1c-2.6,2.4-5.9,6.3-9.5,11.5s-7.5,11.7-11.2,19.7
						s-7.2,17.3-9.9,27.8c-2.5,9.6-4.3,20.2-5.2,31.6s-0.9,23.7,0.1,36.4c1.6,18.9,5.1,38.9,10.8,59.6s13.3,42.1,22,63.8
						c1.8,4.4,3.6,8.7,5.4,13.1c0.7,1.7,1.4,3.4,2.2,5h36c-1.8-4.3-3.6-8.6-5.4-13c-1.7-4.3-3.4-8.6-5.2-12.9
						c-8.5-21.3-16.2-41.9-22.3-61.6s-10.6-38.4-13.3-56.1c-1.8-11.9-2.9-23.3-3.2-33.9s0.2-20.5,1.2-29.6
						c2.1-19.8,6.7-35.6,10-46.5c1.7-5.5,2.9-9.8,3.6-12.8c0.6-3,0.6-4.8-0.4-5.1C1904.8,3504.4,1904.6,3504.4,1904.4,3504.4
						L1904.4,3504.4z"/>
					<path id="path2978" class="st7" d="M1495,3506.3c0.4-0.1,0.9,0.1,1.3,0.5s0.6,1.3,0.7,1.9c0.2,1,0.2,2.4,0,4
						c-0.4,3.1-1.6,7.2-3.3,12.2c-3.4,9.8-9.3,23.3-16.3,39.8c-13.8,32.5-32.6,77.1-47.1,129.7c-7.1,25.6-13,53.1-17,81.8h-41.7
						c4.4-31.4,11.9-61.2,20.9-88.6c8.9-27.1,19.4-51.8,30.2-73.6c10.8-21.8,21.7-40.8,31.7-56.4c10.2-15.9,19.3-28.2,26.3-36.8
						c3.6-4.4,6.5-7.7,8.8-10.1c1.2-1.2,2.2-2.1,3-2.8c0.5-0.6,1.1-0.7,1.6-0.9C1494.4,3506.6,1494.7,3506.3,1495,3506.3z"/>
					<path id="path2980" class="st7" d="M1570.8,3558.6c2.2,0.6,1.4,7.4-1.4,19.3c-2.8,11.9-7.7,28.8-13.3,49.7
						c-5.7,20.9-12.1,45.8-17,73.5c-4.1,23.2-7.1,48.4-7.5,74.8h-34.1c0.9-28.1,5.1-54.6,10.9-78.6c6.9-28.6,15.8-53.8,24.7-74.5
						c8.8-20.7,17.4-37,24.1-48C1563.7,3563.8,1568.6,3558.1,1570.8,3558.6z"/>
					<path id="path2982" class="st7" d="M2000,3564c-2.6,0-4.9,5.5-7.3,15.2c-2.3,9.7-4.7,23.8-6.9,41.2s-4.4,38.2-6.1,61.4
						s-2.8,48.8-2.2,75.8c0,0.9,0.1,1.8,0.1,2.7c0.1,4.7,0.3,9.3,0.6,13.9h36.9c-0.2-4.8-0.4-9.6-0.6-14.5c0-0.9-0.1-1.7-0.1-2.6
						c-0.7-26.3-0.6-51.6-0.8-74.6c-0.2-23.1-0.6-43.9-1.6-61.4s-2.8-31.8-4.8-41.6C2005.1,3569.5,2002.5,3564,2000,3564z"/>
					<path id="path2984" class="st7" d="M2033.9,3585.8c-2.3,0.5-2.1,6.4-0.5,16.6c1.6,10.2,4.5,24.7,7.5,42.5
						c3.1,17.9,6.1,39.2,8.6,63c2.2,21,3.8,43.9,5.1,68h34.5c-1.4-24.9-4.1-48.9-8-70.6c-4.3-24.4-10.1-46.1-16.4-64
						c-6.3-17.9-12.9-32.1-18.5-41.6C2040.6,3590.2,2036.1,3585.3,2033.9,3585.8z"/>
					<path id="path2986" class="st7" d="M1074.2,3774.1c0.1-5.2,0.1-10.4,0-15.7c-0.1-3.7-0.3-7.5-0.5-11.2
						c-1.3-23.1-4.9-45.2-11-65.5s-14.7-38.7-25.2-54.8c-9.6-14.9-20.7-27.8-31.9-38.4c-11.2-10.6-22.5-19-32.5-25.5
						c-22.6-11.6-35.5-19.5-34.3-21.7c1.3-2.2,16.7,1.6,43.5,10.4c12.3,5.5,26.3,13.4,40.5,24.1c14.1,10.7,28.3,24.3,40.6,40.5
						c13,17.3,23.8,37.3,31.4,59.3c7.7,22,12.2,45.9,13.5,70.6c0.2,4,0.3,8,0.3,12c0.1,5.4,0,10.7-0.2,16L1074.2,3774.1
						L1074.2,3774.1z"/>
					<path id="path2988" class="st7" d="M1186.5,3774.1c0.7-5.1,1.5-10.3,2.2-15.5c3.6-30.9,4.8-61,3.7-89.3
						c-1.2-33.2-5.5-64.1-11.2-91.6s-12.9-51.7-19.5-71.7s-12.7-36-16.4-47.1s-5.1-17.6-2.7-18.4c2.4-0.9,8.3,3.9,16.4,13.9
						c8.1,9.9,18.5,25.1,29.1,44.9c10.6,19.8,21.3,44.3,30.2,72.8c8.8,28.5,15.6,60.8,18.2,95.8c2.3,29.8,1.8,61.5-2,93.9
						c-0.5,4.1-1,8.2-1.6,12.3L1186.5,3774.1L1186.5,3774.1z"/>
					<path id="path2990" class="st7" d="M1284.4,3774.1c9.2-21.8,18.7-42.5,27.5-62c9.4-20.9,17.9-40.5,24.9-58.4
						c4-10.5,7.6-20.4,10.4-29.6c2.9-9.2,5-17.7,6.7-25.5c1.6-7.7,2.7-14.7,3.3-20.8c0.7-6.1,1-11.3,1.2-15.6s0.4-7.7,0.8-10.1
						s0.9-3.6,1.8-3.8s2.3,0.8,3.8,3s3.2,5.5,4.7,9.9c1.6,4.4,2.9,9.9,3.9,16.4s1.4,14.1,1.1,22.4c-0.3,8.4-1.2,17.7-2.9,27.6
						c-1.7,9.9-4.3,20.5-7.4,31.6c-5.4,18.9-12.7,39.3-21.2,60.7c-6.9,17.4-14.7,35.6-22.5,54.2L1284.4,3774.1L1284.4,3774.1z"/>
					<path id="path2992" class="st7" d="M1790.4,3774.1c-0.2-3.9-0.5-7.8-0.7-11.7c0-0.4,0-0.8,0-1.2c-1.5-33.3-2.2-65.1-3-94.2
						c-0.8-29.1-1.9-55.4-3.4-77.5s-3.4-40-5.8-52.3c-2.4-12.4-5.2-19.2-8-19.2s-5.6,6.8-8.1,19.1c-2.6,12.3-5,30.1-7.2,52.1
						c-2.3,22-4.3,48.4-5.6,77.6s-1.7,61.5-0.3,95.5c0,0.4,0,0.8,0,1.2c0.2,3.6,0.4,7.1,0.7,10.6L1790.4,3774.1L1790.4,3774.1z"/>
					<path id="path2994" class="st7" d="M1682.2,3774.1c-0.9-16.7-2.7-32.7-5.6-47.3c-3.5-17.8-8.3-33.6-13.7-46.4
						s-11.3-22.9-16.1-29.5s-8.7-9.9-10.5-9.3c-1.8,0.6-1.4,4.9,0.2,12.2s4.4,17.5,7.1,30.3s5.3,28,7.2,45.2
						c1.5,13.9,2.5,29.1,3.1,45L1682.2,3774.1L1682.2,3774.1z"/>
					<path id="path2996" class="st7" d="M1904.4,3504.4c-1.1,0-2.8,1-5.1,3.1c-2.6,2.4-5.9,6.3-9.5,11.5s-7.5,11.7-11.2,19.7
						s-7.2,17.3-9.9,27.8c-2.5,9.6-4.3,20.2-5.2,31.6s-0.9,23.7,0.1,36.4c1.6,18.9,5.1,38.9,10.8,59.6s13.3,42.1,22,63.8
						c1.8,4.4,3.6,8.7,5.4,13.1c0.7,1.7,1.4,3.4,2.2,5h36c-1.8-4.3-3.6-8.6-5.4-13c-1.7-4.3-3.4-8.6-5.2-12.9
						c-8.5-21.3-16.2-41.9-22.3-61.6s-10.6-38.4-13.3-56.1c-1.8-11.9-2.9-23.3-3.2-33.9s0.2-20.5,1.2-29.6
						c2.1-19.8,6.7-35.6,10-46.5c1.7-5.5,2.9-9.8,3.6-12.8c0.6-3,0.6-4.8-0.4-5.1C1904.8,3504.4,1904.6,3504.4,1904.4,3504.4
						L1904.4,3504.4z"/>
					<path id="path2998" class="st7" d="M1495,3506.3c0.4-0.1,0.9,0.1,1.3,0.5s0.6,1.3,0.7,1.9c0.2,1,0.2,2.4,0,4
						c-0.4,3.1-1.6,7.2-3.3,12.2c-3.4,9.8-9.3,23.3-16.3,39.8c-13.8,32.5-32.6,77.1-47.1,129.7c-7.1,25.6-13,53.1-17,81.8h-41.7
						c4.4-31.4,11.9-61.2,20.9-88.6c8.9-27.1,19.4-51.8,30.2-73.6c10.8-21.8,21.7-40.8,31.7-56.4c10.2-15.9,19.3-28.2,26.3-36.8
						c3.6-4.4,6.5-7.7,8.8-10.1c1.2-1.2,2.2-2.1,3-2.8c0.5-0.6,1.1-0.7,1.6-0.9C1494.4,3506.6,1494.7,3506.3,1495,3506.3z"/>
					<path id="path3000" class="st7" d="M1570.8,3558.6c2.2,0.6,1.4,7.4-1.4,19.3c-2.8,11.9-7.7,28.8-13.3,49.7
						c-5.7,20.9-12.1,45.8-17,73.5c-4.1,23.2-7.1,48.4-7.5,74.8h-34.1c0.9-28.1,5.1-54.6,10.9-78.6c6.9-28.6,15.8-53.8,24.7-74.5
						c8.8-20.7,17.4-37,24.1-48C1563.7,3563.8,1568.6,3558.1,1570.8,3558.6z"/>
					<path id="path3002" class="st7" d="M2000,3564c-2.6,0-4.9,5.5-7.3,15.2c-2.3,9.7-4.7,23.8-6.9,41.2s-4.4,38.2-6.1,61.4
						s-2.8,48.8-2.2,75.8c0,0.9,0.1,1.8,0.1,2.7c0.1,4.7,0.3,9.3,0.6,13.9h36.9c-0.2-4.8-0.4-9.6-0.6-14.5c0-0.9-0.1-1.7-0.1-2.6
						c-0.7-26.3-0.6-51.6-0.8-74.6c-0.2-23.1-0.6-43.9-1.6-61.4s-2.8-31.8-4.8-41.6C2005.1,3569.5,2002.5,3564,2000,3564z"/>
					<path id="path3004" class="st7" d="M2033.9,3585.8c-2.3,0.5-2.1,6.4-0.5,16.6c1.6,10.2,4.5,24.7,7.5,42.5
						c3.1,17.9,6.1,39.2,8.6,63c2.2,21,3.8,43.9,5.1,68h34.5c-1.4-24.9-4.1-48.9-8-70.6c-4.3-24.4-10.1-46.1-16.4-64
						c-6.3-17.9-12.9-32.1-18.5-41.6C2040.6,3590.2,2036.1,3585.3,2033.9,3585.8z"/>
					<path id="path3006" class="st7" d="M1102,3747.6c0.1-5.3,0.1-10.7,0-16.1c-0.1-3.8-0.3-7.7-0.6-11.5
						c-1.3-23.7-5-46.4-11.3-67.3c-6.3-20.8-15.1-39.8-25.9-56.3c-9.8-15.3-21.2-28.5-32.7-39.4s-23.1-19.5-33.4-26.2
						c-23.2-11.9-36.5-20-35.3-22.3c1.3-2.3,17.2,1.6,44.7,10.7c12.6,5.7,27.1,13.8,41.6,24.8s29.1,24.9,41.7,41.6
						c13.3,17.7,24.4,38.3,32.3,60.9s12.5,47.2,13.8,72.4c0.2,4.1,0.3,8.2,0.3,12.3c0.1,5.6,0,11-0.2,16.5L1102,3747.6L1102,3747.6z
						"/>
					<path id="path3008" class="st7" d="M1206.3,3747.6c0.9-6,1.9-12.1,2.7-18.2c4.5-36.2,5.9-71.3,4.6-104.5
						c-1.5-38.8-6.8-75-13.9-107.2s-16-60.4-24.2-83.9c-8.3-23.4-15.7-42.1-20.3-55.1c-4.6-13.1-6.3-20.5-3.4-21.5
						s10.2,4.6,20.3,16.2c10.1,11.6,23,29.4,36.2,52.6c13.2,23.2,26.5,51.9,37.4,85.1s19.3,71.1,22.6,112.1
						c2.8,34.9,2.2,71.9-2.5,109.9c-0.6,4.9-1.2,9.6-2,14.4L1206.3,3747.6L1206.3,3747.6z"/>
					<path id="path3010" class="st7" d="M1317.8,3747.6c9.4-22.4,19.2-43.7,28.2-63.6c9.7-21.5,18.4-41.6,25.5-60
						c4.2-10.8,7.8-20.9,10.7-30.4c2.9-9.5,5.2-18.2,6.9-26.2c1.7-7.9,2.7-15.1,3.4-21.4c0.7-6.3,1-11.6,1.2-16s0.4-7.9,0.8-10.4
						c0.3-2.4,0.9-3.7,1.9-3.9s2.3,0.9,3.9,3.1c1.5,2.2,3.3,5.6,4.9,10.2c1.6,4.5,3,10.2,4,16.9s1.4,14.4,1.1,23s-1.2,18.2-3,28.3
						s-4.4,21.1-7.6,32.4c-5.6,19.4-13,40.3-21.8,62.4c-7.1,17.9-15.1,36.5-23.1,55.6L1317.8,3747.6L1317.8,3747.6z"/>
					<path id="path3012" class="st7" d="M1752.9,3747.6c-0.2-4-0.5-8-0.7-12c0-0.4,0-0.8,0-1.2c-1.5-34.2-2.2-66.9-3.1-96.7
						s-1.9-56.9-3.4-79.6c-1.5-22.7-3.5-41-6-53.8s-5.3-19.8-8.2-19.8c-2.9,0-5.7,7-8.4,19.6s-5.1,30.9-7.4,53.6
						c-2.3,22.6-4.4,49.7-5.7,79.7c-1.3,30.1-1.8,63.2-0.3,98c0,0.4,0,0.8,0,1.2c0.2,3.7,0.5,7.3,0.7,10.9L1752.9,3747.6
						L1752.9,3747.6z"/>
					<path id="path3014" class="st7" d="M1641.8,3747.6c-0.9-17.1-2.8-33.6-5.7-48.6c-3.6-18.2-8.6-34.5-14.1-47.7
						c-5.6-13.2-11.6-23.5-16.6-30.3s-8.9-10.1-10.7-9.6c-1.8,0.6-1.5,5,0.2,12.5s4.5,18,7.3,31.1s5.5,28.8,7.4,46.4
						c1.6,14.3,2.5,29.9,3.2,46.2L1641.8,3747.6L1641.8,3747.6z"/>
					<path id="path3016" class="st7" d="M1954.6,3470.6c-1.1,0-2.9,1-5.2,3.2c-2.7,2.5-6,6.5-9.7,11.8s-7.7,12.1-11.5,20.2
						s-7.4,17.7-10.2,28.5c-2.6,9.9-4.4,20.8-5.3,32.5s-1,24.3,0.1,37.4c1.6,19.4,5.3,40,11.1,61.3s13.6,43.3,22.6,65.5
						c1.8,4.5,3.7,9,5.5,13.4c0.7,1.8,1.5,3.4,2.2,5.2h36.9c-1.9-4.5-3.7-8.8-5.5-13.3c-1.8-4.4-3.5-8.8-5.3-13.2
						c-8.7-21.8-16.6-43.1-22.9-63.3s-10.9-39.5-13.7-57.6c-1.9-12.2-3-23.9-3.3-34.9c-0.3-10.9,0.2-21.1,1.2-30.4
						c2.2-20.3,6.9-36.5,10.3-47.8c1.7-5.6,3-10,3.7-13.1s0.6-4.9-0.4-5.3C1954.9,3470.7,1954.8,3470.6,1954.6,3470.6L1954.6,3470.6
						z"/>
					<path id="path3018" class="st7" d="M1775.7,3472.6c-0.4-0.1-0.9,0.1-1.3,0.5s-0.6,1.3-0.7,1.9c-0.2,1.1-0.2,2.5,0,4.1
						c0.4,3.2,1.7,7.4,3.4,12.5c3.5,10.1,9.5,24,16.7,40.9c14.2,33.4,33.4,79.1,48.4,133.2c7.3,26.3,13.3,54.5,17.5,84h42.8
						c-4.5-32.2-12.2-62.9-21.5-91c-9.2-27.8-20-53.2-31-75.6s-22.3-41.9-32.6-57.9c-10.5-16.3-19.8-29-27-37.8
						c-3.7-4.5-6.7-7.9-9-10.4c-1.2-1.3-2.2-2.2-3.1-2.9c-0.5-0.6-1.2-0.7-1.6-0.9S1776.1,3472.6,1775.7,3472.6z"/>
					<path id="path3020" class="st7" d="M1527.3,3526.4c2.3,0.6,1.5,7.6-1.4,19.8s-7.9,29.6-13.7,51.1s-12.4,47-17.5,75.5
						c-4.2,23.8-7.3,49.7-7.7,76.9h-35.1c1-28.8,5.2-56.1,11.2-80.8c7.1-29.4,16.3-55.2,25.3-76.5s17.9-38,24.8-49.3
						C1520.1,3531.7,1525.1,3525.8,1527.3,3526.4z"/>
					<path id="path3022" class="st7" d="M2052.7,3531.8c-2.6,0-5.1,5.6-7.5,15.6s-4.8,24.4-7.1,42.3c-2.3,17.9-4.6,39.2-6.3,63
						s-2.9,50.1-2.3,77.8c0,0.9,0.1,1.8,0.1,2.7c0.1,4.8,0.3,9.6,0.6,14.3h37.9c-0.2-4.9-0.4-9.9-0.6-14.9c0-0.9-0.1-1.7-0.1-2.6
						c-0.7-27-0.6-53-0.8-76.6s-0.6-45.1-1.7-63.1c-1.1-18-2.8-32.6-5-42.7C2057.9,3537.5,2055.3,3531.8,2052.7,3531.8z"/>
					<path id="path3024" class="st7" d="M2087.5,3554.3c-2.3,0.6-2.1,6.6-0.6,17.1s4.6,25.3,7.7,43.7c3.1,18.4,6.3,40.3,8.9,64.7
						c2.2,21.5,3.9,45.1,5.2,69.8h35.4c-1.5-25.6-4.2-50.2-8.2-72.5c-4.5-25-10.4-47.3-16.8-65.8c-6.4-18.4-13.3-33-19-42.8
						C2094.4,3558.8,2089.8,3553.7,2087.5,3554.3z"/>
					<path id="path3026" class="st7" d="M1171.2,3755.8c0.1-4.6,0.1-9.2,0-13.9c-0.1-3.3-0.3-6.6-0.5-9.9c-1.2-20.4-4.3-40-9.7-58
						c-5.4-18-13-34.3-22.3-48.5c-8.5-13.2-18.3-24.6-28.2-34s-19.9-16.8-28.8-22.6c-20-10.2-31.4-17.3-30.4-19.2
						c1.1-1.9,14.8,1.4,38.5,9.2c10.9,4.9,23.3,11.9,35.8,21.4s25,21.5,35.9,35.8c11.5,15.3,21.1,33,27.8,52.5
						c6.8,19.5,10.8,40.7,11.9,62.4c0.2,3.6,0.3,7.1,0.3,10.6c0.1,4.8,0,9.5-0.2,14.2H1171.2L1171.2,3755.8z"/>
					<path id="path3028" class="st7" d="M1274,3755.8c0.7-4.6,1.4-9.1,1.9-13.8c3.2-27.4,4.2-54,3.3-79.1
						c-1.1-29.4-4.8-56.7-9.9-81.1c-5.1-24.4-11.4-45.7-17.3-63.5s-11.2-31.9-14.5-41.7c-3.3-9.9-4.5-15.5-2.4-16.3
						s7.3,3.5,14.5,12.3s16.4,22.2,25.8,39.8s18.9,39.3,26.7,64.4c7.8,25.2,13.8,53.9,16.1,84.8c2,26.4,1.6,54.4-1.8,83.2
						c-0.4,3.7-0.9,7.3-1.4,10.9L1274,3755.8L1274,3755.8z"/>
					<path id="path3030" class="st7" d="M1357.2,3755.8c8.1-19.3,16.6-37.6,24.3-54.9c8.3-18.5,15.9-35.8,22-51.7
						c3.6-9.3,6.7-18,9.3-26.2s4.5-15.7,5.9-22.6c1.4-6.8,2.3-13,2.9-18.4s0.9-10,1.1-13.8s0.4-6.8,0.7-8.9c0.3-2.1,0.8-3.2,1.6-3.4
						c0.8-0.1,2,0.7,3.3,2.6s2.8,4.9,4.2,8.8c1.4,3.9,2.6,8.8,3.4,14.6s1.2,12.4,0.9,19.8c-0.2,7.4-1,15.6-2.6,24.4
						c-1.5,8.8-3.8,18.2-6.6,27.9c-4.8,16.7-11.2,34.8-18.8,53.8c-6.1,15.4-13,31.5-19.9,48L1357.2,3755.8L1357.2,3755.8z"/>
					<path id="path3032" class="st7" d="M1734.8,3755.8c-0.2-3.4-0.4-6.9-0.6-10.4c0-0.4,0-0.7,0-1.1c-1.3-29.5-1.9-57.6-2.6-83.4
						c-0.7-25.7-1.7-49.1-3-68.6s-3-35.4-5.2-46.3c-2.1-10.9-4.6-17-7.1-17s-4.9,6-7.2,16.9c-2.3,10.9-4.4,26.6-6.4,46.2
						s-3.8,42.8-4.9,68.7s-1.5,54.5-0.2,84.5c0,0.4,0,0.7,0,1.1c0.1,3.2,0.4,6.3,0.6,9.4L1734.8,3755.8L1734.8,3755.8z"/>
					<path id="path3034" class="st7" d="M1639.1,3755.8c-0.8-14.8-2.4-28.9-4.9-41.9c-3.1-15.7-7.4-29.7-12.2-41.1
						c-4.8-11.4-10-20.3-14.3-26.1c-4.3-5.9-7.7-8.8-9.3-8.3s-1.3,4.3,0.2,10.8s3.9,15.5,6.3,26.8s4.7,24.8,6.4,40
						c1.3,12.3,2.2,25.8,2.8,39.9L1639.1,3755.8L1639.1,3755.8z"/>
					<path id="path3036" class="st7" d="M1906.1,3517.1c-0.9,0-2.5,0.9-4.5,2.8c-2.3,2.1-5.2,5.6-8.4,10.2
						c-3.2,4.6-6.6,10.4-9.9,17.4s-6.4,15.3-8.8,24.6c-2.2,8.5-3.8,17.9-4.6,28c-0.8,10.1-0.8,20.9,0.1,32.3
						c1.4,16.7,4.6,34.4,9.5,52.8c5,18.4,11.7,37.3,19.4,56.4c1.6,3.9,3.2,7.7,4.8,11.6c0.6,1.5,1.3,3,1.9,4.5h31.8
						c-1.6-3.8-3.2-7.6-4.8-11.5c-1.5-3.8-3-7.6-4.6-11.4c-7.5-18.8-14.3-37.1-19.7-54.6s-9.4-34-11.8-49.6
						c-1.6-10.6-2.6-20.6-2.9-30.1c-0.3-9.4,0.2-18.1,1.1-26.2c1.9-17.5,5.9-31.5,8.9-41.2c1.5-4.9,2.6-8.7,3.2-11.3
						c0.6-2.7,0.5-4.2-0.4-4.5C1906.4,3517.1,1906.3,3517.1,1906.1,3517.1L1906.1,3517.1z"/>
					<path id="path3038" class="st7" d="M1751.9,3518.7c-0.3-0.1-0.8,0.1-1.1,0.4s-0.5,1.1-0.6,1.7c-0.2,0.9-0.2,2.1,0,3.5
						c0.4,2.7,1.4,6.4,3,10.8c3.1,8.7,8.2,20.7,14.4,35.2c12.2,28.7,28.8,68.2,41.7,114.8c6.3,22.6,11.5,47,15.1,72.4h36.9
						c-3.9-27.8-10.5-54.2-18.5-78.4c-7.9-24-17.2-45.9-26.7-65.2s-19.2-36.1-28.1-49.9c-9-14.1-17.1-25-23.3-32.6
						c-3.2-3.9-5.7-6.8-7.8-8.9c-1-1.1-1.9-1.9-2.6-2.4c-0.5-0.6-1-0.6-1.4-0.8C1752.5,3519,1752.3,3518.8,1751.9,3518.7z"/>
					<path id="path3040" class="st7" d="M1540.4,3565.1c1.9,0.5,1.3,6.5-1.2,17s-6.8,25.5-11.8,44s-10.7,40.5-15.1,65.1
						c-3.6,20.5-6.3,42.9-6.7,66.3h-30.2c0.8-24.9,4.5-48.3,9.6-69.6c6.1-25.3,14-47.6,21.8-66s15.4-32.7,21.3-42.5
						S1538.5,3564.6,1540.4,3565.1z"/>
					<path id="path3042" class="st7" d="M1990.7,3569.8c-2.3,0-4.4,4.9-6.4,13.5c-2.1,8.6-4.1,21-6.1,36.4s-3.9,33.8-5.4,54.3
						s-2.5,43.2-1.9,67.1c0,0.8,0.1,1.6,0.1,2.4c0.1,4.1,0.3,8.2,0.5,12.3h32.7c-0.2-4.3-0.4-8.5-0.5-12.9c0-0.8-0.1-1.5-0.1-2.3
						c-0.6-23.3-0.6-45.7-0.7-66.1c-0.2-20.4-0.5-38.8-1.4-54.4c-0.9-15.6-2.4-28.1-4.3-36.8
						C1995.2,3574.7,1993,3569.8,1990.7,3569.8z"/>
					<path id="path3044" class="st7" d="M2020.7,3589.2c-2,0.5-1.8,5.7-0.5,14.7s4,21.8,6.7,37.7c2.7,15.8,5.4,34.7,7.6,55.8
						c1.9,18.6,3.4,38.9,4.5,60.2h30.5c-1.3-22.1-3.6-43.3-7.1-62.5c-3.9-21.6-9-40.8-14.5-56.7s-11.5-28.4-16.4-36.9
						C2026.6,3593,2022.7,3588.7,2020.7,3589.2z"/>
					<path id="path3046" class="st7" d="M1561.2,3755.8c0.7-4.6,1.4-9.1,1.9-13.8c3.2-27.4,4.2-54,3.3-79.1
						c-1.1-29.4-4.8-56.7-9.9-81.1c-5.1-24.4-11.4-45.7-17.3-63.5s-11.2-31.9-14.5-41.7c-3.3-9.9-4.5-15.5-2.4-16.3
						s7.3,3.5,14.5,12.3s16.4,22.2,25.8,39.8s18.9,39.3,26.7,64.4s13.8,53.9,16.1,84.8c2,26.4,1.6,54.4-1.8,83.2
						c-0.4,3.7-0.9,7.3-1.4,10.9L1561.2,3755.8L1561.2,3755.8z"/>
					<path id="path3048" class="st7" d="M1683.4,3517.1c-0.9,0-2.5,0.9-4.5,2.8c-2.3,2.1-5.2,5.6-8.4,10.2
						c-3.2,4.6-6.6,10.4-9.9,17.4s-6.4,15.3-8.8,24.6c-2.2,8.5-3.8,17.9-4.6,28s-0.8,20.9,0.1,32.3c1.4,16.7,4.6,34.4,9.5,52.8
						s11.7,37.3,19.4,56.4c1.6,3.9,3.2,7.7,4.8,11.6c0.6,1.5,1.3,3,1.9,4.5h31.8c-1.6-3.8-3.2-7.6-4.8-11.5c-1.5-3.8-3-7.6-4.6-11.4
						c-7.5-18.8-14.3-37.1-19.7-54.6s-9.4-34-11.8-49.6c-1.6-10.6-2.6-20.6-2.9-30.1c-0.3-9.4,0.2-18.1,1.1-26.2
						c1.9-17.5,5.9-31.5,8.9-41.2c1.5-4.9,2.6-8.7,3.2-11.3c0.6-2.7,0.5-4.2-0.4-4.5C1683.7,3517.1,1683.6,3517.1,1683.4,3517.1
						L1683.4,3517.1z"/>
					<path id="path3050" class="st7" d="M1988.9,3531.9c0.3-0.1,0.8,0.1,1.1,0.4s0.5,1.1,0.6,1.7c0.2,0.9,0.2,2.1,0,3.5
						c-0.4,2.7-1.4,6.4-3,10.8c-3.1,8.7-8.2,20.7-14.4,35.2c-12.2,28.7-28.8,68.2-41.7,114.8c-6.3,22.6-11.5,47-15.1,72.4h-36.9
						c3.9-27.8,10.5-54.2,18.5-78.4c7.9-24,17.2-45.9,26.7-65.2s19.2-36.1,28.1-49.9c9-14.1,17.1-25,23.3-32.6
						c3.2-3.9,5.7-6.8,7.8-8.9c1-1.1,1.9-1.9,2.6-2.4c0.5-0.6,1-0.6,1.4-0.8C1988.4,3532.2,1988.6,3532,1988.9,3531.9z"/>
					<path id="path3052" class="st7" d="M2145.6,3565.1c1.9,0.5,1.3,6.5-1.2,17s-6.8,25.5-11.8,44s-10.7,40.5-15.1,65.1
						c-3.6,20.5-6.3,42.9-6.7,66.3h-30.2c0.8-24.9,4.5-48.3,9.6-69.6c6.1-25.3,14-47.6,21.8-66s15.4-32.7,21.4-42.5
						S2143.6,3564.6,2145.6,3565.1z"/>
					<path id="path3054" class="st7" d="M1840.3,3561.9c-2.3,0-4.4,4.9-6.4,13.5s-4.1,21-6.1,36.4s-3.9,33.8-5.4,54.3
						s-2.5,43.2-1.9,67.1c0,0.8,0.1,1.6,0.1,2.4c0.1,4.1,0.3,8.2,0.5,12.3h32.7c-0.2-4.3-0.4-8.5-0.5-12.9c0-0.8-0.1-1.5-0.1-2.3
						c-0.6-23.3-0.6-45.7-0.7-66.1c-0.2-20.4-0.5-38.8-1.4-54.4c-0.9-15.6-2.4-28.1-4.3-36.8S1842.6,3561.9,1840.3,3561.9z"/>
					<path id="path3056" class="st7" d="M1615.4,3578.6c-2,0.5-1.8,5.7-0.5,14.7s4,21.8,6.7,37.7c2.7,15.8,5.4,34.7,7.6,55.8
						c1.9,18.6,3.4,38.9,4.5,60.2h30.5c-1.3-22.1-3.6-43.3-7.1-62.5c-3.8-21.6-9-40.8-14.5-56.7s-11.5-28.4-16.4-36.9
						C1621.3,3582.4,1617.4,3578.1,1615.4,3578.6z"/>
					<g id="g3234">
						<path id="path3196" class="st7" d="M202.5,3721.6c14.4,2.2,37.9,20,38-2.6c85.4-190.1,121.9-394.4,93-594.9
							c-12.3-133.3,12.9-274.3,115-386c39.6-45.6,86.9-86.9,135.3-127.1c-112,85.8-213.3,187.5-246.1,308.8
							c-31.3,100.3-20.8,204-14.6,305.9C324.5,3394.7,280.9,3564,202.5,3721.6z"/>
						<path id="path3202" class="st7" d="M601.5,2773.5c-108.6,70.3-209.7,155.9-253,264.6c-14.4,32.6-24,66.1-30.7,99.9
							c3.7,1.6,7.5,3.1,11.3,4.6c16.9-95.7,58.3-188.9,138.4-262.6C507.8,2841.1,554.3,2806.8,601.5,2773.5z"/>
						<path id="rect3207" class="st8" d="M550.8,2632.5L550.8,2632.5c11.1,6.3,13.5,18.3,5.3,26.8L457,2762.5
							c-8.2,8.5-23.8,10.3-34.9,4.1l0,0c-11.1-6.3-13.5-18.3-5.3-26.8l99.1-103.2C524,2628.1,539.7,2626.2,550.8,2632.5z"/>
						<path id="rect3209" class="st8" d="M563.2,2797.1L563.2,2797.1c8.4,6,8.8,16.1,0.9,22.5l-95.1,77.8c-7.9,6.4-21,6.7-29.4,0.7
							l0,0c-8.4-6-8.8-16.1-0.9-22.5l95.1-77.8C541.7,2791.4,554.8,2791.1,563.2,2797.1z"/>
						<path id="path3216" class="st8" d="M57.8,3266.8c0,0.1,0,0.1,0,0.2c-39.7,15.8-75.3,33.8-80.6,43.9
							c13.5,4.6,54.9,1.3,97.8-5.8c34.9,52.8,113.3,134.1,149.8,141.2c16.1,2.5,32.2,5,47.4,9.9l1.1,0.2l0.8,0.1
							c2.8-4.5-5.4-35.7-2.9-42.6C264,3379.9,98.2,3266.9,57.8,3266.8L57.8,3266.8z"/>
						<path id="path3223" class="st8" d="M365.5,3334.5c9.3-4.5,19.5-7.6,29.7-10.6c30.3-10.3,89.2-111.4,83.4-132.5
							c-26.5,3.6-118.9,92.2-118.7,115.2c2.6,4.4,1.9,25.6,4.4,28.3l0.5-0.1L365.5,3334.5L365.5,3334.5L365.5,3334.5z"/>
						<path id="path3227" class="st8" d="M239.3,3407.6c-6.3,1.2-12.3,2.8-17.8,4.9c28.8,25.4,56.1,52.4,78.2,81.4
							c7.8-2.4,14.8-5.5,20.8-9.2C297.5,3456.9,269.6,3431.2,239.3,3407.6z"/>
						<path id="path3232" class="st8" d="M384.3,3296.6c5.1,1,10,2.3,14.5,4c-23.5,20.7-45.8,42.8-63.8,66.5
							c-6.4-1.9-12.1-4.4-17-7.5C336.8,3336.8,359.5,3315.8,384.3,3296.6z"/>
					</g>
					<g id="g3354">
					</g>
					<g id="g3403">
						<path id="path3247" class="st7" d="M191.9,2842.9c-29.1,57.9-48,116.4-43.6,176.8c2.7,94.3,47.6,182.4,87.6,269.8
							c57.8,146.9,71.3,304,46.7,458.7c14.9-1.3,44,9.1,36.5-10.6c20.6-184.6-11.5-370.7-106.7-538.9
							c-55.6-111.5-77.9-237.3-18.8-355.5C192.3,2842.7,193.2,2843.6,191.9,2842.9z"/>
						<path id="path3249" class="st7" d="M359.1,2833.8c-83.4,85.3-154.2,182.3-160.6,286.6c-3.3,31.6-1.6,62.9,3.1,93.9
							c4.2,0.6,8.4,1.1,12.7,1.4c-15.2-87.1-5.6-177.6,48.6-259.5C289.4,2913.4,323.6,2873.3,359.1,2833.8z"/>
						<path id="path3338" class="st8" d="M305.2,2963.7c-3.1,6.8-8.4,13.6-19.4,23.3c-22.8,10.7-59.9,20.6-56.6,42
							c-0.3,0.3-0.4,0.5-0.5,0.7c-4.6,4.3-9.1,8.7-13.4,13.2c1.4,1.3,3.1,2.5,5.1,3.5c3.8-4.3,7.7-8.5,11.8-12.7
							c34-1.3,43.7-26.7,57.7-43.4c12.6-8.8,21.4-13.2,30.3-15.7c-6.9,1.5-15.7,4.4-25,8.3C299.9,2975.7,303.5,2969,305.2,2963.7z"
							/>
						<path id="path3346" class="st8" d="M315.3,3160.2c0.1,0.7,0.1,1.3,0.2,1.9c-36.7,27.7-44.9,83.8-48.2,132.8
							c-3.1,3.9,0,16,3.4,23.1c-2.7,5.8-5.4,11.7-7.8,17.7c2.7,1.9,5.9,3.5,9.4,4.6c2.4-6.8,5-13.5,7.8-20.2
							c5.1-1.6,7.4-6.5,14.5-14c21-46.8,42.5-103.6,21.6-144c0.2-0.3,0.4-0.6,0.6-0.9c-0.3,0.2-0.5,0.4-0.8,0.6
							C315.8,3161.3,315.6,3160.7,315.3,3160.2L315.3,3160.2z M315.6,3163c2.6,22.2-1.4,34.4-18.4,74.1
							C300.5,3194.8,302.5,3182.5,315.6,3163z"/>
						<path id="path3364" class="st8" d="M232.5,2899.3c-2.1,7.5-6.5,15.2-16.3,26.5c-22.1,13.4-59.2,27.5-52.1,49.9
							c-0.2,0.3-0.3,0.6-0.4,0.8c-4.1,5-8,10-11.7,15.2c1.7,1.3,3.7,2.4,6,3.2c3.2-4.9,6.6-9.8,10.2-14.6
							c35.3-4.6,41.2-32.4,52.9-51.4c11.7-10.5,20.1-16,29-19.5c-7,2.2-15.7,6.1-24.7,11.1C229,2912.5,231.6,2905.1,232.5,2899.3z"
							/>
						<path id="path3366" class="st8" d="M100.4,2846.1c6.8,5.6,12.5,12.8,19,25.5c1.7,21.6-4.7,53,23.4,61.3
							c0.2,0.3,0.4,0.5,0.6,0.7c3,5.4,6.1,10.8,9.5,16.1c2.3-0.3,4.7-0.9,6.9-1.9c-3.4-4.8-6.6-9.8-9.7-14.8
							c15.4-24.8-11-44.5-24.5-62.8c-4.5-13.4-5.5-21.8-4.2-29.4c-1.7,5.7-2.4,13.4-2.3,21.9C112.5,2855.9,106,2850,100.4,2846.1z"
							/>
						<path id="path3368" class="st8" d="M88.5,3018.6c9.5,4.9,18.2,11.9,29.7,24.8c9.1,23.8,12.4,60.2,46.5,64
							c0.4,0.3,0.6,0.5,0.9,0.7c5.1,5.5,10.4,10.9,16,16.1c2.5-0.8,4.9-2,7.1-3.5c-5.4-4.7-10.7-9.6-15.8-14.6
							c8.9-30.8-27.1-47.6-48.3-65.4c-9.5-14.1-13.4-23.3-14.4-32.1c0,6.7,1.7,15.4,4.7,25C105.4,3027.1,96.2,3021.8,88.5,3018.6
							L88.5,3018.6z"/>
						<path id="path3370" class="st8" d="M314.6,3032.4c-5,6.1-12,11.6-25.2,18.8c-24.5,5.5-62.1,7.1-65.6,29.1
							c-0.3,0.2-0.5,0.4-0.7,0.6c-5.6,3.2-11.1,6.6-16.5,10.1c0.9,1.6,2.1,3.2,3.7,4.6c4.8-3.4,9.8-6.8,14.9-10
							c32,6.3,48.9-16.8,67-30.2c14.5-5.9,24-8.3,33-8.9c-6.9-0.1-16,0.9-25.8,2.6C306,3043.2,311.4,3037.3,314.6,3032.4
							L314.6,3032.4z"/>
						<path id="path3372" class="st8" d="M215.5,2851.8c-13.5,8.9-26.8,18.1-39.9,27.4c0.5,0.2,1.1,0.4,1.6,0.6
							C189.8,2870.4,202.6,2861.1,215.5,2851.8z"/>
						<g id="g3374">
							<path id="path3378" class="st7" d="M359.1,2833.8c-83.4,85.3-154.2,182.3-160.6,286.6c-3.3,31.6-1.6,62.9,3.1,93.9
								c4.2,0.6,8.4,1.1,12.7,1.4c-15.2-87.1-5.6-177.6,48.6-259.5C289.4,2913.4,323.6,2873.3,359.1,2833.8L359.1,2833.8z"/>
						</g>
						<path id="path3401" class="st8" d="M104.7,3154.8c0.3,0.6,0.5,1.1,0.8,1.7c50,10.5,86.8,55,115.1,95.2
							c5.1,2.2,8.2,13.5,8.5,20.7c5.7,4,11.3,8,16.7,12.2c-1.7,2.6-4,5-6.8,7.1c-5.8-4.9-11.8-9.6-18-14.3
							c-5.8,0.5-10.6-2.9-21.3-6.7c-44.4-32.1-94.6-72.6-95-114c-0.4-0.2-0.7-0.4-1.1-0.6c0.4,0.1,0.7,0.2,1.1,0.2
							C104.8,3155.9,104.7,3155.3,104.7,3154.8L104.7,3154.8z M105.9,3157.3c8.9,19.7,19.1,28.6,56,56.1
							C136.9,3178.9,128.6,3169.1,105.9,3157.3z"/>
					</g>
				</g>
			</g>
		</g>
		<g id="Layer_6" class="st5">
			<circle class="st9" cx="420" cy="642" r="219"/>
		</g>
		<g id="Layer_7" class="st5">
			<path class="st10" d="M547.7,313.6c-0.5,13-1,28.2-12,37.1c-9,7.3-21.5,8.7-32.4,11.4c-11.5,2.8-23.2,6.9-31.2,16.1
				c-8.5,9.9-11.9,22.5-10,35.3c0.9,6.4,10.5,3.6,9.6-2.7c-1.8-12.8,4.7-26,15.8-32.5c10-5.8,22-7.1,33-10
				c10.6-2.8,20.9-7.3,27.7-16.3c8.1-10.9,9-25.1,9.5-38.3C558,307.2,548,307.2,547.7,313.6z"/>
			<path class="st10" d="M731.7,436.4c-0.7-6.3-10.7-6.4-10,0c1.3,12.4-7.3,23-18.6,27.3c-13.1,5.1-27.6,3.2-41,0.8
				c-12.8-2.3-27.5-6.6-40.5-3.3c-11.5,2.9-19.1,12.6-25.9,21.7c-3.8,5.2,4.8,10.2,8.6,5c3.6-4.9,7.4-10,12.4-13.6
				c5.8-4.2,12.3-4.6,19.3-4c14.9,1.3,29.4,5.8,44.3,6.4c12.8,0.6,26.4-1.6,36.8-9.6C726.6,460,733,448.5,731.7,436.4z"/>
			<path class="st10" d="M760,614.4c-3.3,9.5-11.5,16.9-21,20c-10.9,3.6-20.6,1-30.1-4.9c-9.5-5.8-18.4-12.6-29.9-13.3
				c-9.2-0.5-19.1,3.1-23.2,11.9c-2.7,5.8,6,10.9,8.6,5c4.3-9.4,16.9-7.9,24.7-4.1c11,5.4,20.1,14.3,32.6,16.4
				c20.4,3.4,41.2-9,48-28.5C771.7,611,762.1,608.3,760,614.4z"/>
			<path class="st10" d="M712.1,821.9c-4.8,9.8-17.7,11.2-26.3,5.5c-11.3-7.4-14-20.9-16.2-33.2c-2-11.3-5.4-23.2-16.2-29
				c-9-4.9-19.8-4.3-26.2,4.3c-3.8,5.2,4.8,10.2,8.6,5c2.8-3.7,8.3-2.7,11.9-1c5.4,2.6,8.1,7.5,9.8,13c3.8,12.4,3.8,25.3,10.8,36.6
				c5.9,9.5,15.3,16.9,26.8,17.6c10.3,0.6,20.9-4.3,25.6-13.8C723.5,821.1,714.9,816.1,712.1,821.9z"/>
			<path class="st10" d="M616.7,958.8c-0.4,3.5-5.4,3.3-7.8,2.5c-3-1-5.7-3.3-8-5.5c-4.1-4-7.2-8.8-9.6-13.9
				c-5.3-11.7-5.4-24.1-6.4-36.7c-0.9-11.4-3.2-23.4-12-31.5c-7.8-7.2-18.3-10.2-28.1-5.4c-5.8,2.8-0.7,11.5,5,8.6
				c12.5-6.2,22,10,24,19.9c2.7,13.6,1.2,27.5,5.3,40.9c3.5,11.4,9.9,22.4,19.9,29.4c10.1,7.1,25.8,5.8,27.6-8.5
				C627.5,952.4,617.5,952.5,616.7,958.8z"/>
			<path class="st10" d="M456.9,1010.9c-7.4-8.4-12-19.3-12.8-30.5c-1-12.5,3.5-23.6,7.3-35.3c3.6-10.9,6-22.8,1.4-33.8
				c-4.3-10.2-13.5-17.5-24.3-19.8c-6.3-1.3-8.7,8.4-2.4,9.7c11.1,2.3,19,11.5,19.2,22.9c0.2,12-5.8,23.3-9,34.6
				c-5.8,20.9-0.7,42.9,13.5,59.3C454.2,1022.9,461.1,1015.7,456.9,1010.9z"/>
			<path class="st10" d="M308.9,872.5c-6-2.4-8.5,7.2-2.7,9.6c9.6,3.9,7,17.9,2.3,24.3c-7.2,10-19.5,16.3-29,23.8
				c-10.4,8.1-21.8,17.2-29.7,27.8c-6.3,8.5-5,22.2,7.3,23.5c6.4,0.7,6.3-9.3,0-10c-3.1-0.3-0.4-6,0.4-7.2c1.8-2.6,4.3-4.9,6.5-7.1
				c4.7-4.7,9.7-9.3,14.8-13.6c9.7-8.3,20.8-14.9,30.3-23.3c7.6-6.7,13.6-15.6,13.6-26.1C322.8,884.7,318,876.2,308.9,872.5z"/>
			<path class="st10" d="M241.6,808.2c-1.6-6.2-11.2-3.6-9.6,2.7c2.7,10.7-4.3,20.9-13.3,26.2c-9.9,5.8-21.5,6.7-32.7,7.9
				c-10.1,1.1-20.6,3.1-27.8,10.8s-10,18.2-12.3,28.2c-1.4,6.3,8.2,8.9,9.6,2.7c2.4-10.3,5.1-22.8,15.3-28s23.1-3.9,34.2-6.1
				C225.6,848.3,247.4,831.9,241.6,808.2z"/>
			<path class="st10" d="M199.2,702.6c-2-6.1-11.7-3.5-9.6,2.7c4.3,12.9-11.7,18.6-21.5,18.9c-12.7,0.4-25.3-1.6-38-1.3
				c-24.2,0.5-47.4,9.5-58.5,32.3c-2.8,5.8,5.8,10.8,8.6,5c5.9-12.1,16.1-20.8,29-24.5c12.8-3.7,26.4-3.1,39.5-2.3
				c12.5,0.7,26.1,2.6,37.7-3.4C196.2,724.9,202.8,713.4,199.2,702.6z"/>
			<path class="st10" d="M176,599.7c-3,9.7-15.4,9.7-23,6.4c-9.8-4.3-17.4-12.4-26.4-18c-16.9-10.5-38.2-8-49.7,9.2
				c-3.6,5.4,5.1,10.4,8.6,5c5.5-8.2,15.8-12.6,25.4-10.3c10.7,2.5,18.9,11.2,27.7,17.3c8,5.6,17.4,10,27.3,8.6
				c9-1.2,16.9-6.7,19.6-15.6C187.5,596.2,177.9,593.6,176,599.7z"/>
			<path class="st10" d="M220.5,480.4c-10.2,4.1-16.9-8.6-19.1-16.4c-2.9-10.1-4.1-20.3-10.3-29.1c-10.7-15.4-30.3-23.9-48.8-20.9
				c-6.3,1-5.3,11,1.1,10c20.3-3.3,39.6,9.5,45.2,29c2.8,10,3.7,21,10.8,29.1c6.1,7.1,15.6,11.3,24.7,7.7
				C230.1,487.4,226.5,478,220.5,480.4z"/>
			<path class="st10" d="M341.3,348c8.5-24-11.5-45.2-30.1-57.1c-5.4-3.5-10.7,5.1-5.2,8.5c10.6,6.7,21.5,16,25.8,28.2
				c4.7,13.4-3.3,23.5-9.3,34.8c-6.1,11.3-10.5,24.5-10.7,37.4c-0.2,11.1,6.1,24.1,18.9,23.4c6.4-0.4,6.8-10.4,0.4-10
				c-14.8,0.9-8.1-24.4-5.8-31.9C329,369.4,337.2,359.8,341.3,348z"/>
		</g>
		<g id="Layer_8" class="st5">
			<ellipse class="st11" cx="375" cy="614" rx="20" ry="32"/>
			<ellipse class="st11" cx="486" cy="614" rx="20" ry="32"/>
			<path class="st12" d="M496,684c-1.1,1.9-22.1,35.7-62,36c-27.7,0.2-53.4-15.7-66-41"/>
			<ellipse class="st13" cx="329.5" cy="668" rx="25.5" ry="11"/>
			<ellipse class="st13" cx="530.5" cy="670" rx="25.5" ry="11"/>
		</g>
		<g id="Layer_9" class="st5">
			<ellipse class="st14" cx="381" cy="604" rx="7" ry="14"/>
			<ellipse class="st14" cx="493" cy="604" rx="7" ry="14"/>
		</g>
		<path class="st15" d="M1913.8,1039.1c5.1-10.7,7.9-22.4,7.9-34.7c0-53.1-53.4-96.2-119.2-96.2c-24.5,0-47.3,6-66.2,16.2
			c-34.4-48.1-98.6-80.4-172.3-80.4c-109.8,0-198.7,71.7-198.7,160.3c0,2.7,0.1,5.4,0.2,8.1c-69.6,19.7-119.5,73.2-119.5,136.2
			c0,79.7,80.1,144.3,178.9,144.3H1882c87.8,0,159-57.4,159-128.3C2041,1102.7,1986.4,1050.9,1913.8,1039.1z"/>
		<path class="st15" d="M861.5,1568.5c4-8.5,6.3-17.7,6.3-27.4c0-41.9-42.2-76-94.2-76c-19.3,0-37.4,4.7-52.3,12.8
			c-27.2-38-77.9-63.5-136.1-63.5c-86.7,0-157,56.7-157,126.6c0,2.1,0.1,4.3,0.2,6.4C373.5,1563,334,1605.3,334,1655
			c0,62.9,63.3,114,141.3,114h361.1c69.4,0,125.6-45.4,125.6-101.3C962,1618.7,918.8,1577.8,861.5,1568.5z"/>
	</g>
	<g id="Layer_2_2_">
		<path class="st15" d="M704.6,559.8c4.1-8,6.4-16.7,6.4-25.8c0-39.5-43-71.6-96-71.6c-19.7,0-38.1,4.5-53.3,12.1
			c-27.7-35.8-79.4-59.8-138.7-59.8c-88.4,0-160,53.4-160,119.3c0,2,0.1,4,0.2,6c-56,14.7-96.2,54.5-96.2,101.3
			c0,59.3,64.5,107.4,144,107.4h368c70.7,0,128-42.7,128-95.4C807,607.1,763,568.6,704.6,559.8z"/>
	</g>
</g>
<g id="Layer_2">
	<g>
		<g id="layer1_1_">
			<path id="path4092_1_" class="st7" d="M127.4,3268.7c0.1-4.5,0.1-9,0-13.6c-0.1-3.2-0.3-6.5-0.5-9.7c-1.2-20-4.6-39.2-10.3-56.8
				c-5.7-17.6-13.8-33.6-23.7-47.5c-9-12.9-19.4-24.1-30-33.3c-10.5-9.2-21.2-16.5-30.6-22.2c-21.2-10-33.4-16.9-32.3-18.9
				c1.2-1.9,15.7,1.4,40.9,9c11.6,4.8,24.8,11.7,38.1,20.9c13.3,9.3,26.6,21.1,38.2,35.1c12.2,15,22.3,32.4,29.6,51.5
				c7.2,19.1,11.5,39.8,12.7,61.2c0.2,3.5,0.3,7,0.3,10.4c0.1,4.7,0,9.3-0.2,13.9H127.4L127.4,3268.7z"/>
			<path id="path4090_1_" class="st7" d="M233,3268.7c0.7-4.5,1.5-8.9,2-13.5c3.4-26.8,4.5-52.9,3.5-77.5
				c-1.1-28.8-5.1-55.6-10.5-79.5c-5.4-23.9-12.1-44.8-18.4-62.2c-6.3-17.4-11.9-31.2-15.4-40.9s-4.8-15.2-2.6-16
				c2.2-0.7,7.7,3.4,15.4,12c7.6,8.6,17.4,21.8,27.4,39c10,17.2,20.1,38.5,28.3,63.2c8.3,24.7,14.6,52.8,17.1,83.2
				c2.1,25.9,1.7,53.4-1.9,81.5c-0.5,3.6-0.9,7.1-1.5,10.7L233,3268.7L233,3268.7z"/>
			<path id="path4088_1_" class="st7" d="M325,3268.7c8.6-18.9,17.6-36.9,25.8-53.8c8.9-18.2,16.9-35.1,23.4-50.7
				c3.8-9.1,7.1-17.7,9.8-25.7c2.7-8,4.7-15.4,6.3-22.2c1.5-6.7,2.5-12.8,3.1-18.1c0.6-5.3,0.9-9.8,1.1-13.6
				c0.2-3.7,0.4-6.7,0.7-8.7c0.3-2,0.8-3.2,1.7-3.3c0.9-0.1,2.1,0.7,3.5,2.6c1.4,1.9,3,4.8,4.5,8.6c1.5,3.8,2.8,8.6,3.7,14.3
				c0.9,5.7,1.3,12.2,1,19.4c-0.3,7.3-1.1,15.3-2.7,23.9c-1.6,8.6-4,17.8-7,27.4c-5.1,16.4-11.9,34.1-19.9,52.7
				c-6.5,15.1-13.9,30.9-21.1,47H325z"/>
			<path id="path4086_1_" class="st7" d="M466.5,3268.7c0.2-3.4,0.5-6.7,0.6-10.1c0-0.3,0-0.7,0-1c1.4-28.9,2-56.5,2.8-81.7
				c0.8-25.2,1.7-48.1,3.1-67.3c1.4-19.2,3.2-34.7,5.5-45.4c2.2-10.7,4.9-16.7,7.5-16.7c2.7,0,5.2,5.9,7.6,16.6
				c2.4,10.7,4.7,26.1,6.8,45.2s4,42,5.2,67.3c1.2,25.4,1.6,53.4,0.2,82.8c0,0.3,0,0.7,0,1c-0.2,3.1-0.4,6.1-0.6,9.2L466.5,3268.7
				L466.5,3268.7z"/>
			<path id="path4038_1_" class="st7" d="M568.2,3268.7c0.8-14.5,2.6-28.4,5.2-41.1c3.3-15.4,7.8-29.1,12.9-40.3
				c5.1-11.2,10.6-19.9,15.2-25.6c4.6-5.8,8.1-8.6,9.8-8.1c1.7,0.5,1.4,4.2-0.2,10.6c-1.5,6.3-4.1,15.2-6.7,26.3
				c-2.6,11.1-5,24.3-6.7,39.2c-1.4,12.1-2.3,25.3-2.9,39.1L568.2,3268.7L568.2,3268.7z"/>
			<path id="path4082_1_" class="st7" d="M907.8,3034.6c-1,0-2.6,0.9-4.8,2.7c-2.4,2.1-5.5,5.5-8.9,10s-7,10.2-10.5,17.1
				c-3.5,6.9-6.8,15-9.3,24.1c-2.3,8.3-4,17.5-4.9,27.5c-0.9,9.9-0.9,20.5,0.1,31.6c1.5,16.4,4.8,33.8,10.1,51.7
				c5.3,18,12.5,36.6,20.7,55.3c1.7,3.8,3.4,7.6,5.1,11.3c0.7,1.5,1.4,2.9,2,4.4h33.8c-1.7-3.8-3.4-7.4-5.1-11.3
				c-1.7-3.7-3.2-7.4-4.9-11.2c-8-18.4-15.2-36.4-21-53.5c-5.7-17.1-10-33.4-12.6-48.7c-1.7-10.3-2.8-20.2-3-29.5
				c-0.3-9.2,0.2-17.8,1.1-25.7c2-17.1,6.3-30.9,9.4-40.3c1.6-4.7,2.8-8.5,3.3-11.1c0.6-2.6,0.6-4.1-0.4-4.5
				C908.1,3034.6,908,3034.6,907.8,3034.6L907.8,3034.6z"/>
			<path id="path4080_1_" class="st7" d="M744.1,3036.3c-0.4,0-0.9,0-1.2,0.4c-0.4,0.4-0.5,1.1-0.6,1.6c-0.2,0.9-0.2,2.1,0,3.4
				c0.4,2.7,1.5,6.3,3.1,10.6c3.2,8.5,8.7,20.3,15.3,34.5c13,28.2,30.6,66.9,44.3,112.5c6.6,22.2,12.2,46.1,16,70.9h39.2
				c-4.1-27.2-11.1-53.1-19.7-76.9c-8.4-23.5-18.3-45-28.4-63.9c-10.1-18.9-20.4-35.4-29.8-48.9c-9.6-13.8-18.1-24.5-24.7-32
				c-3.3-3.8-6.1-6.7-8.3-8.8c-1.1-1.1-2-1.8-2.8-2.4c-0.5-0.5-1.1-0.6-1.5-0.8C744.7,3036.5,744.5,3036.3,744.1,3036.3z"/>
			<path id="path4078_1_" class="st7" d="M672.9,3081.7c-2.1,0.5-1.3,6.4,1.3,16.7s7.2,25,12.6,43.1c5.3,18.2,11.4,39.7,16,63.8
				c3.9,20.1,6.7,42,7.1,64.9H742c-0.9-24.4-4.8-47.4-10.2-68.2c-6.4-24.8-14.9-46.7-23.2-64.7c-8.3-18-16.4-32.1-22.7-41.7
				C679.6,3086.2,675,3081.2,672.9,3081.7z"/>
			<path id="path4076_1_" class="st7" d="M997.6,3086.3c-2.4,0-4.6,4.8-6.8,13.2s-4.4,20.6-6.5,35.7c-2.1,15.1-4.2,33.1-5.7,53.2
				c-1.6,20.1-2.7,42.3-2.1,65.8c0,0.8,0.1,1.5,0.1,2.3c0.1,4,0.3,8.1,0.6,12.1h34.7c-0.2-4.2-0.4-8.3-0.6-12.6
				c0-0.8-0.1-1.5-0.1-2.2c-0.6-22.8-0.6-44.8-0.7-64.8c-0.2-20-0.5-38.1-1.5-53.3s-2.6-27.6-4.6-36.1S1000,3086.3,997.6,3086.3z"/>
			<path id="path4068_1_" class="st7" d="M1029.5,3105.3c-2.1,0.5-2,5.6-0.5,14.4c1.5,8.8,4.2,21.4,7.1,36.9
				c2.9,15.5,5.8,34,8.1,54.7c2,18.2,3.6,38.1,4.8,59h32.4c-1.3-21.7-3.9-42.4-7.5-61.3c-4.1-21.1-9.5-40-15.4-55.6
				s-12.2-27.9-17.4-36.1C1035.8,3109.1,1031.6,3104.8,1029.5,3105.3z"/>
			<polygon id="rect4094_1_" class="st8" points="0,3240.4 2160,3240.4 2160,3270.3 2104.7,3270.3 0,3270.3 			"/>
			<path id="path2886_1_" class="st7" d="M127.4,3268.7c0.1-4.5,0.1-9,0-13.6c-0.1-3.2-0.3-6.5-0.5-9.7c-1.2-20-4.6-39.2-10.3-56.8
				c-5.7-17.6-13.8-33.6-23.7-47.5c-9-12.9-19.4-24.1-30-33.3c-10.5-9.2-21.2-16.5-30.6-22.2c-21.2-10-33.4-16.9-32.3-18.9
				c1.2-1.9,15.7,1.4,40.9,9c11.6,4.8,24.8,11.7,38.1,20.9c13.3,9.3,26.6,21.1,38.2,35.1c12.2,15,22.3,32.4,29.6,51.5
				c7.2,19.1,11.5,39.8,12.7,61.2c0.2,3.5,0.3,7,0.3,10.4c0.1,4.7,0,9.3-0.2,13.9H127.4L127.4,3268.7z"/>
			<path id="path2888_1_" class="st7" d="M233,3268.7c0.7-4.5,1.5-8.9,2-13.5c3.4-26.8,4.5-52.9,3.5-77.5
				c-1.1-28.8-5.1-55.6-10.5-79.5c-5.4-23.9-12.1-44.8-18.4-62.2c-6.3-17.4-11.9-31.2-15.4-40.9s-4.8-15.2-2.6-16
				c2.2-0.7,7.7,3.4,15.4,12c7.6,8.6,17.4,21.8,27.4,39c10,17.2,20.1,38.5,28.3,63.2c8.3,24.7,14.6,52.8,17.1,83.2
				c2.1,25.9,1.7,53.4-1.9,81.5c-0.5,3.6-0.9,7.1-1.5,10.7L233,3268.7L233,3268.7z"/>
			<path id="path2890_1_" class="st7" d="M325,3268.7c8.6-18.9,17.6-36.9,25.8-53.8c8.9-18.2,16.9-35.1,23.4-50.7
				c3.8-9.1,7.1-17.7,9.8-25.7c2.7-8,4.7-15.4,6.3-22.2c1.5-6.7,2.5-12.8,3.1-18.1c0.6-5.3,0.9-9.8,1.1-13.6
				c0.2-3.7,0.4-6.7,0.7-8.7c0.3-2,0.8-3.2,1.7-3.3c0.9-0.1,2.1,0.7,3.5,2.6c1.4,1.9,3,4.8,4.5,8.6c1.5,3.8,2.8,8.6,3.7,14.3
				c0.9,5.7,1.3,12.2,1,19.4c-0.3,7.3-1.1,15.3-2.7,23.9c-1.6,8.6-4,17.8-7,27.4c-5.1,16.4-11.9,34.1-19.9,52.7
				c-6.5,15.1-13.9,30.9-21.1,47H325z"/>
			<path id="path2892_1_" class="st7" d="M466.5,3268.7c0.2-3.4,0.5-6.7,0.6-10.1c0-0.3,0-0.7,0-1c1.4-28.9,2-56.5,2.8-81.7
				c0.8-25.2,1.7-48.1,3.1-67.3c1.4-19.2,3.2-34.7,5.5-45.4c2.2-10.7,4.9-16.7,7.5-16.7c2.7,0,5.2,5.9,7.6,16.6
				c2.4,10.7,4.7,26.1,6.8,45.2s4,42,5.2,67.3c1.2,25.4,1.6,53.4,0.2,82.8c0,0.3,0,0.7,0,1c-0.2,3.1-0.4,6.1-0.6,9.2L466.5,3268.7
				L466.5,3268.7z"/>
			<path id="path2894_1_" class="st7" d="M568.2,3268.7c0.8-14.5,2.6-28.4,5.2-41.1c3.3-15.4,7.8-29.1,12.9-40.3
				c5.1-11.2,10.6-19.9,15.2-25.6c4.6-5.8,8.1-8.6,9.8-8.1c1.7,0.5,1.4,4.2-0.2,10.6c-1.5,6.3-4.1,15.2-6.7,26.3
				c-2.6,11.1-5,24.3-6.7,39.2c-1.4,12.1-2.3,25.3-2.9,39.1L568.2,3268.7L568.2,3268.7z"/>
			<path id="path2896_1_" class="st7" d="M907.8,3034.6c-1,0-2.6,0.9-4.8,2.7c-2.4,2.1-5.5,5.5-8.9,10s-7,10.2-10.5,17.1
				c-3.5,6.9-6.8,15-9.3,24.1c-2.3,8.3-4,17.5-4.9,27.5c-0.9,9.9-0.9,20.5,0.1,31.6c1.5,16.4,4.8,33.8,10.1,51.7
				c5.3,18,12.5,36.6,20.7,55.3c1.7,3.8,3.4,7.6,5.1,11.3c0.7,1.5,1.4,2.9,2,4.4h33.8c-1.7-3.8-3.4-7.4-5.1-11.3
				c-1.7-3.7-3.2-7.4-4.9-11.2c-8-18.4-15.2-36.4-21-53.5c-5.7-17.1-10-33.4-12.6-48.7c-1.7-10.3-2.8-20.2-3-29.5
				c-0.3-9.2,0.2-17.8,1.1-25.7c2-17.1,6.3-30.9,9.4-40.3c1.6-4.7,2.8-8.5,3.3-11.1c0.6-2.6,0.6-4.1-0.4-4.5
				C908.1,3034.6,908,3034.6,907.8,3034.6L907.8,3034.6z"/>
			<path id="path2898_1_" class="st7" d="M744.1,3036.3c-0.4,0-0.9,0-1.2,0.4c-0.4,0.4-0.5,1.1-0.6,1.6c-0.2,0.9-0.2,2.1,0,3.4
				c0.4,2.7,1.5,6.3,3.1,10.6c3.2,8.5,8.7,20.3,15.3,34.5c13,28.2,30.6,66.9,44.3,112.5c6.6,22.2,12.2,46.1,16,70.9h39.2
				c-4.1-27.2-11.1-53.1-19.7-76.9c-8.4-23.5-18.3-45-28.4-63.9c-10.1-18.9-20.4-35.4-29.8-48.9c-9.6-13.8-18.1-24.5-24.7-32
				c-3.3-3.8-6.1-6.7-8.3-8.8c-1.1-1.1-2-1.8-2.8-2.4c-0.5-0.5-1.1-0.6-1.5-0.8C744.7,3036.5,744.5,3036.3,744.1,3036.3z"/>
			<path id="path2900_1_" class="st7" d="M672.9,3081.7c-2.1,0.5-1.3,6.4,1.3,16.7s7.2,25,12.6,43.1c5.3,18.2,11.4,39.7,16,63.8
				c3.9,20.1,6.7,42,7.1,64.9H742c-0.9-24.4-4.8-47.4-10.2-68.2c-6.4-24.8-14.9-46.7-23.2-64.7c-8.3-18-16.4-32.1-22.7-41.7
				C679.6,3086.2,675,3081.2,672.9,3081.7z"/>
			<path id="path2902_1_" class="st7" d="M997.6,3086.3c-2.4,0-4.6,4.8-6.8,13.2s-4.4,20.6-6.5,35.7c-2.1,15.1-4.2,33.1-5.7,53.2
				c-1.6,20.1-2.7,42.3-2.1,65.8c0,0.8,0.1,1.5,0.1,2.3c0.1,4,0.3,8.1,0.6,12.1h34.7c-0.2-4.2-0.4-8.3-0.6-12.6
				c0-0.8-0.1-1.5-0.1-2.2c-0.6-22.8-0.6-44.8-0.7-64.8c-0.2-20-0.5-38.1-1.5-53.3s-2.6-27.6-4.6-36.1S1000,3086.3,997.6,3086.3z"/>
			<path id="path2904_1_" class="st7" d="M1029.5,3105.3c-2.1,0.5-2,5.6-0.5,14.4c1.5,8.8,4.2,21.4,7.1,36.9
				c2.9,15.5,5.8,34,8.1,54.7c2,18.2,3.6,38.1,4.8,59h32.4c-1.3-21.7-3.9-42.4-7.5-61.3c-4.1-21.1-9.5-40-15.4-55.6
				s-12.2-27.9-17.4-36.1C1035.8,3109.1,1031.6,3104.8,1029.5,3105.3z"/>
			<path id="path2906_1_" class="st7" d="M153.5,3245.7c0.1-4.6,0.1-9.3,0-14c-0.1-3.3-0.3-6.7-0.5-10c-1.3-20.6-4.7-40.3-10.6-58.4
				s-14.2-34.5-24.3-48.8c-9.2-13.3-19.9-24.8-30.8-34.2c-10.8-9.5-21.7-16.9-31.4-22.8c-21.8-10.3-34.3-17.4-33.2-19.4
				c1.2-2,16.1,1.4,42,9.3c11.9,4.9,25.4,12,39.1,21.5c13.6,9.5,27.3,21.6,39.2,36.1c12.5,15.4,23,33.3,30.3,52.8
				c7.4,19.6,11.8,40.9,13,62.9c0.2,3.6,0.3,7.2,0.3,10.7c0.1,4.8,0,9.5-0.2,14.3H153.5L153.5,3245.7z"/>
			<path id="path2908_1_" class="st7" d="M261.9,3245.7c0.7-4.6,1.5-9.2,2.1-13.8c3.5-27.6,4.6-54.3,3.6-79.6
				c-1.2-29.6-5.3-57.1-10.8-81.7c-5.5-24.5-12.4-46-18.8-63.9c-6.4-17.8-12.2-32.1-15.8-42c-3.6-9.9-4.9-15.6-2.6-16.4
				c2.3-0.8,8,3.5,15.8,12.4c7.8,8.9,17.9,22.4,28.1,40c10.3,17.7,20.6,39.5,29.1,64.9c8.5,25.4,15,54.2,17.6,85.4
				c2.2,26.6,1.7,54.8-1.9,83.7c-0.5,3.7-1,7.3-1.5,11L261.9,3245.7L261.9,3245.7z"/>
			<path id="path2910_1_" class="st7" d="M356.4,3245.7c8.9-19.4,18.1-37.9,26.5-55.2c9.1-18.7,17.3-36.1,24-52
				c3.9-9.3,7.3-18.1,10.1-26.4c2.8-8.2,4.9-15.8,6.4-22.8c1.6-6.9,2.6-13.1,3.2-18.6c0.6-5.4,0.9-10.1,1.1-13.9
				c0.2-3.8,0.4-6.9,0.7-9s0.8-3.2,1.8-3.4c0.9-0.1,2.2,0.7,3.6,2.7c1.4,1.9,3.1,4.9,4.6,8.8c1.5,3.9,2.8,8.8,3.8,14.7
				c0.9,5.8,1.3,12.5,1,20c-0.3,7.5-1.1,15.8-2.8,24.6c-1.7,8.8-4.1,18.3-7.2,28.1c-5.2,16.8-12.2,35-20.5,54.1
				c-6.7,15.5-14.2,31.7-21.7,48.3L356.4,3245.7L356.4,3245.7z"/>
			<path id="path2912_1_" class="st7" d="M501.7,3245.7c0.2-3.5,0.5-6.9,0.6-10.4c0-0.3,0-0.7,0-1.1c1.4-29.7,2.1-58,2.9-83.9
				c0.8-25.9,1.8-49.4,3.2-69.1c1.5-19.7,3.3-35.6,5.6-46.6c2.3-11,5-17.1,7.7-17.1s5.4,6.1,7.9,17c2.5,11,4.8,26.8,7,46.5
				c2.2,19.6,4.1,43.1,5.4,69.2c1.2,26.1,1.7,54.8,0.3,85.1c0,0.3,0,0.7,0,1.1c-0.2,3.2-0.4,6.3-0.6,9.5H501.7L501.7,3245.7z"/>
			<path id="path2914_1_" class="st7" d="M606.2,3245.7c0.8-14.9,2.6-29.1,5.4-42.2c3.3-15.8,8-29.9,13.3-41.4s10.9-20.4,15.6-26.3
				c4.7-5.9,8.4-8.8,10.1-8.3s1.4,4.4-0.2,10.8s-4.2,15.6-6.8,27c-2.6,11.4-5.1,25-6.9,40.2c-1.5,12.4-2.4,25.9-3,40.1H606.2
				L606.2,3245.7z"/>
			<path id="path2916_1_" class="st7" d="M955,3005.3c-1,0-2.7,0.9-4.9,2.8c-2.5,2.2-5.7,5.6-9.1,10.2c-3.5,4.6-7.2,10.5-10.8,17.5
				c-3.6,7.1-7,15.4-9.6,24.7c-2.4,8.6-4.1,18-5,28.2c-0.9,10.2-0.9,21.1,0.1,32.5c1.5,16.8,5,34.7,10.4,53.1
				c5.4,18.5,12.8,37.5,21.2,56.8c1.7,3.9,3.4,7.8,5.2,11.6c0.7,1.5,1.4,3,2.1,4.5h34.7c-1.7-3.9-3.5-7.6-5.2-11.6
				c-1.7-3.8-3.3-7.6-5-11.5c-8.2-18.9-15.6-37.4-21.5-54.9c-5.9-17.6-10.3-34.3-12.9-50c-1.8-10.6-2.8-20.8-3.1-30.3
				c-0.3-9.5,0.2-18.3,1.1-26.4c2-17.6,6.5-31.7,9.7-41.4c1.6-4.9,2.8-8.7,3.4-11.4c0.6-2.7,0.6-4.2-0.4-4.6
				C955.3,3005.4,955.1,3005.3,955,3005.3L955,3005.3z"/>
			<path id="path2918_1_" class="st7" d="M786.8,3007c-0.4,0-0.9,0-1.2,0.4c-0.4,0.4-0.5,1.1-0.6,1.7c-0.2,0.9-0.2,2.1,0,3.5
				c0.4,2.8,1.6,6.4,3.2,10.8c3.3,8.8,8.9,20.8,15.7,35.5c13.3,28.9,31.4,68.7,45.5,115.6c6.8,22.8,12.5,47.3,16.5,72.9h40.2
				c-4.3-27.9-11.5-54.5-20.2-79c-8.6-24.2-18.8-46.2-29.1-65.6c-10.4-19.5-21-36.4-30.6-50.3c-9.8-14.2-18.7-25.1-25.4-32.8
				c-3.4-3.9-6.3-6.9-8.5-9c-1.1-1.1-2.1-1.9-2.8-2.5c-0.5-0.6-1.1-0.6-1.5-0.8C787.4,3007.3,787.2,3007.1,786.8,3007z"/>
			<path id="path2920_1_" class="st7" d="M713.7,3053.7c-2.1,0.5-1.4,6.6,1.4,17.2c2.7,10.6,7.4,25.7,12.9,44.3
				c5.5,18.6,11.7,40.8,16.4,65.5c4,20.7,6.8,43.1,7.3,66.7h32.9c-0.9-25-4.9-48.7-10.5-70.1c-6.6-25.5-15.3-47.9-23.8-66.4
				c-8.5-18.5-16.8-33-23.3-42.8C720.6,3058.3,715.9,3053.2,713.7,3053.7z"/>
			<path id="path2922_1_" class="st7" d="M1047.2,3058.4c-2.5,0-4.8,4.9-7,13.6c-2.3,8.7-4.5,21.2-6.7,36.7
				c-2.2,15.5-4.3,34-5.9,54.7c-1.6,20.6-2.8,43.5-2.1,67.5c0,0.8,0.1,1.6,0.1,2.4c0.1,4.2,0.3,8.3,0.6,12.4h35.7
				c-0.2-4.3-0.4-8.6-0.6-12.9c0-0.8-0.1-1.5-0.1-2.3c-0.6-23.5-0.6-46-0.8-66.5s-0.5-39.1-1.6-54.8c-1-15.6-2.7-28.3-4.7-37.1
				C1052.1,3063.3,1049.7,3058.4,1047.2,3058.4z"/>
			<path id="path2924_1_" class="st7" d="M1079.9,3077.9c-2.2,0.5-2,5.7-0.5,14.8c1.5,9.1,4.3,22,7.3,37.9s5.9,35,8.3,56.2
				c2.1,18.7,3.7,39.2,4.9,60.6h33.3c-1.4-22.2-4-43.5-7.7-62.9c-4.2-21.7-9.8-41.1-15.8-57s-12.5-28.6-17.9-37.1
				C1086.3,3081.8,1082.1,3077.4,1079.9,3077.9z"/>
			<path id="path2926_1_" class="st7" d="M218.6,3252.8c0.1-4,0.1-8,0-12.1c-0.1-2.8-0.3-5.7-0.5-8.6c-1.1-17.7-4-34.7-9.1-50.3
				c-5.1-15.6-12.2-29.7-21-42.1c-8-11.4-17.2-21.4-26.5-29.5c-9.3-8.2-18.8-14.6-27-19.6c-18.8-8.9-29.6-15-28.6-16.7
				c1-1.7,13.9,1.2,36.2,8c10.2,4.2,21.9,10.3,33.7,18.5c11.8,8.2,23.5,18.6,33.8,31.1c10.8,13.3,19.8,28.6,26.2,45.6
				c6.4,16.9,10.1,35.3,11.2,54.2c0.2,3.1,0.2,6.2,0.3,9.2c0.1,4.2,0,8.2-0.2,12.3L218.6,3252.8L218.6,3252.8z"/>
			<path id="path2928_1_" class="st7" d="M312,3252.8c0.6-4,1.3-7.9,1.8-11.9c3-23.8,4-46.8,3.1-68.6c-1-25.5-4.5-49.2-9.3-70.4
				c-4.8-21.1-10.7-39.7-16.3-55.1c-5.5-15.4-10.5-27.6-13.6-36.2c-3.1-8.6-4.2-13.5-2.3-14.1s6.9,3,13.6,10.7
				c6.7,7.6,15.4,19.3,24.3,34.5s17.8,34.1,25.1,55.9c7.3,21.9,12.9,46.7,15.2,73.6c1.9,22.9,1.5,47.2-1.7,72.2
				c-0.4,3.2-0.8,6.3-1.3,9.5H312L312,3252.8z"/>
			<path id="path2930_1_" class="st7" d="M393.5,3252.8c7.6-16.7,15.6-32.7,22.8-47.6c7.8-16.1,14.9-31.1,20.7-44.9
				c3.4-8.1,6.3-15.6,8.7-22.7c2.4-7.1,4.2-13.6,5.6-19.6c1.3-5.9,2.2-11.3,2.8-16c0.6-4.7,0.8-8.7,1-12c0.2-3.3,0.4-5.9,0.6-7.7
				c0.3-1.8,0.7-2.8,1.5-2.9c0.8-0.1,1.9,0.6,3.1,2.3c1.2,1.7,2.7,4.2,4,7.6c1.3,3.4,2.4,7.6,3.2,12.6c0.8,5,1.1,10.8,0.9,17.2
				c-0.2,6.5-1,13.6-2.4,21.2c-1.5,7.6-3.5,15.8-6.2,24.2c-4.5,14.5-10.6,30.2-17.7,46.6c-5.8,13.3-12.2,27.3-18.7,41.6
				L393.5,3252.8L393.5,3252.8z"/>
			<path id="path2932_1_" class="st7" d="M518.7,3252.8c0.2-3,0.4-6,0.6-9c0-0.3,0-0.6,0-0.9c1.2-25.6,1.8-50,2.5-72.3
				c0.7-22.3,1.6-42.6,2.8-59.5c1.2-17,2.8-30.7,4.8-40.2c2-9.5,4.3-14.8,6.7-14.8c2.4,0,4.6,5.2,6.8,14.7c2.1,9.5,4.1,23.1,6,40
				c1.9,16.9,3.6,37.1,4.6,59.6c1.1,22.5,1.4,47.3,0.2,73.3c0,0.3,0,0.6,0,0.9c-0.1,2.8-0.4,5.4-0.6,8.1L518.7,3252.8L518.7,3252.8z
				"/>
			<path id="path2934_1_" class="st7" d="M608.7,3252.8c0.7-12.8,2.3-25.1,4.6-36.4c2.9-13.6,6.9-25.8,11.4-35.7s9.4-17.6,13.4-22.7
				c4-5.1,7.2-7.6,8.7-7.2c1.5,0.4,1.2,3.8-0.2,9.4c-1.4,5.6-3.6,13.4-5.9,23.2c-2.3,9.8-4.4,21.5-6,34.7c-1.3,10.7-2,22.4-2.6,34.6
				L608.7,3252.8L608.7,3252.8z"/>
			<path id="path2936_1_" class="st7" d="M909.4,3045.6c-0.9,0-2.3,0.8-4.2,2.4c-2.1,1.9-4.9,4.8-7.9,8.8c-3,4-6.2,9-9.3,15.1
				c-3.1,6.1-6,13.3-8.3,21.3c-2.1,7.4-3.5,15.5-4.3,24.3c-0.8,8.8-0.8,18.2,0.1,28c1.3,14.5,4.3,29.9,9,45.8
				c4.7,15.9,11,32.4,18.3,49c1.5,3.4,3,6.7,4.5,10c0.6,1.3,1.2,2.6,1.8,3.9h29.9c-1.5-3.3-3-6.6-4.5-10c-1.5-3.3-2.8-6.6-4.3-9.9
				c-7.1-16.3-13.4-32.2-18.6-47.3c-5.1-15.1-8.8-29.5-11.1-43.1c-1.5-9.2-2.4-17.9-2.7-26.1c-0.3-8.2,0.2-15.7,1-22.7
				c1.7-15.2,5.6-27.3,8.3-35.7c1.4-4.2,2.4-7.5,2.9-9.8c0.5-2.3,0.5-3.6-0.4-3.9C909.7,3045.6,909.5,3045.6,909.4,3045.6
				L909.4,3045.6z"/>
			<path id="path2938_1_" class="st7" d="M764.5,3047.1c-0.3,0-0.7,0-1.1,0.4c-0.3,0.3-0.5,1-0.6,1.4c-0.2,0.8-0.2,1.8,0,3.1
				c0.4,2.4,1.4,5.6,2.8,9.4c2.9,7.5,7.7,17.9,13.5,30.6c11.5,24.9,27.1,59.2,39.2,99.6c5.9,19.6,10.8,40.8,14.2,62.8h34.7
				c-3.7-24.1-9.9-47-17.4-68.1c-7.4-20.8-16.2-39.8-25.1-56.6c-8.9-16.8-18.1-31.4-26.4-43.3c-8.5-12.2-16.1-21.7-21.9-28.3
				c-2.9-3.4-5.4-5.9-7.3-7.8c-1-0.9-1.8-1.6-2.5-2.1c-0.4-0.5-0.9-0.6-1.3-0.7C765,3047.3,764.8,3047.1,764.5,3047.1z"/>
			<path id="path2940_1_" class="st7" d="M701.4,3087.3c-1.8,0.4-1.2,5.7,1.2,14.8c2.4,9.1,6.4,22.1,11.1,38.2
				c4.7,16.1,10.1,35.2,14.2,56.5c3.4,17.8,5.9,37.2,6.3,57.5h28.4c-0.8-21.6-4.2-41.9-9-60.4c-5.7-22-13.2-41.3-20.5-57.2
				c-7.3-15.9-14.5-28.4-20.1-36.9C707.3,3091.3,703.3,3086.9,701.4,3087.3z"/>
			<path id="path2942_1_" class="st7" d="M988.9,3091.4c-2.1,0-4.1,4.2-6.1,11.7c-1.9,7.5-3.9,18.2-5.8,31.6
				c-1.9,13.4-3.7,29.3-5.1,47.1c-1.4,17.8-2.4,37.5-1.8,58.2c0,0.7,0.1,1.4,0.1,2c0.1,3.6,0.3,7.2,0.5,10.7h30.7
				c-0.2-3.7-0.4-7.4-0.5-11.1c0-0.7-0.1-1.3-0.1-2c-0.6-20.2-0.5-39.6-0.7-57.3c-0.2-17.7-0.5-33.7-1.4-47.2s-2.3-24.4-4-32
				C993.1,3095.6,991,3091.4,988.9,3091.4z"/>
			<path id="path2944_1_" class="st7" d="M1017.1,3108.2c-1.9,0.4-1.7,4.9-0.5,12.8c1.3,7.8,3.7,18.9,6.3,32.7
				c2.6,13.7,5.1,30.1,7.2,48.4c1.8,16.1,3.2,33.7,4.2,52.2h28.7c-1.2-19.2-3.4-37.5-6.6-54.2c-3.6-18.7-8.4-35.4-13.6-49.2
				c-5.2-13.8-10.8-24.7-15.4-32C1022.6,3111.5,1019,3107.8,1017.1,3108.2z"/>
			<path id="path2948_1_" class="st7" d="M681.9,3252.8c-0.6-4-1.3-7.9-1.8-11.9c-3-23.8-4-46.8-3.1-68.6c1-25.5,4.5-49.2,9.3-70.4
				c4.8-21.1,10.7-39.7,16.3-55.1c5.5-15.4,10.5-27.6,13.6-36.2c3.1-8.6,4.2-13.5,2.3-14.1s-6.9,3-13.6,10.7
				c-6.7,7.6-15.4,19.3-24.3,34.5s-17.8,34.1-25.1,55.9c-7.3,21.9-12.9,46.7-15.2,73.6c-1.9,22.9-1.5,47.2,1.7,72.2
				c0.4,3.2,0.8,6.3,1.3,9.5H681.9L681.9,3252.8z"/>
			<path id="path2956_1_" class="st7" d="M567,3045.6c0.9,0,2.3,0.8,4.2,2.4c2.1,1.9,4.9,4.8,7.9,8.8c3,4,6.2,9,9.3,15.1
				c3.1,6.1,6,13.3,8.2,21.3c2.1,7.4,3.5,15.5,4.3,24.3c0.8,8.8,0.8,18.2-0.1,28c-1.3,14.5-4.3,29.9-9,45.8s-11,32.4-18.3,49
				c-1.5,3.4-3,6.7-4.5,10c-0.6,1.3-1.2,2.6-1.8,3.9h-29.9c1.5-3.3,3-6.6,4.5-10c1.5-3.3,2.8-6.6,4.3-9.9
				c7.1-16.3,13.4-32.2,18.6-47.3c5.1-15.1,8.8-29.5,11.1-43.1c1.5-9.2,2.4-17.9,2.7-26.1c0.3-8.2-0.2-15.7-1-22.7
				c-1.7-15.2-5.6-27.3-8.3-35.7c-1.4-4.2-2.4-7.5-2.9-9.8c-0.5-2.3-0.5-3.6,0.4-3.9C566.8,3045.6,566.9,3045.6,567,3045.6
				L567,3045.6z"/>
			<path id="path2958_1_" class="st7" d="M987.2,3058.5c0.3,0,0.7,0,1.1,0.4c0.3,0.3,0.5,1,0.6,1.4c0.2,0.8,0.2,1.8,0,3.1
				c-0.4,2.4-1.4,5.6-2.8,9.4c-2.9,7.5-7.7,17.9-13.5,30.6c-11.5,24.9-27.1,59.2-39.2,99.6c-5.9,19.6-10.8,40.8-14.2,62.8h-34.7
				c3.7-24.1,9.9-47,17.4-68.1c7.4-20.8,16.2-39.8,25.1-56.6c8.9-16.8,18.1-31.4,26.4-43.3c8.5-12.2,16.1-21.7,21.9-28.3
				c2.9-3.4,5.4-5.9,7.3-7.8c1-0.9,1.8-1.6,2.5-2.1c0.4-0.5,0.9-0.6,1.3-0.7C986.7,3058.8,986.9,3058.6,987.2,3058.5z"/>
			<path id="path2960_1_" class="st7" d="M1134.4,3087.3c1.8,0.4,1.2,5.7-1.2,14.8c-2.4,9.1-6.4,22.1-11.1,38.2
				c-4.7,16.1-10.1,35.2-14.2,56.5c-3.4,17.8-5.9,37.2-6.3,57.5h-28.4c0.8-21.6,4.2-41.9,9-60.4c5.7-22,13.2-41.3,20.5-57.2
				s14.5-28.4,20.1-36.9C1128.6,3091.3,1132.6,3086.9,1134.4,3087.3z"/>
			<path id="path2962_1_" class="st7" d="M419.5,3084.5c2.1,0,4.1,4.2,6.1,11.7c1.9,7.5,3.9,18.2,5.8,31.6
				c1.9,13.4,3.7,29.3,5.1,47.1c1.4,17.8,2.4,37.5,1.8,58.2c0,0.7-0.1,1.4-0.1,2c-0.1,3.6-0.3,7.2-0.5,10.7h-30.7
				c0.2-3.7,0.4-7.4,0.5-11.1c0-0.7,0.1-1.3,0.1-2c0.6-20.2,0.5-39.6,0.7-57.3c0.2-17.7,0.5-33.7,1.4-47.2c0.9-13.5,2.3-24.4,4-32
				C415.3,3088.7,417.4,3084.5,419.5,3084.5z"/>
			<path id="path2964_1_" class="st7" d="M631,3099c1.9,0.4,1.7,4.9,0.5,12.8c-1.3,7.8-3.7,18.9-6.3,32.7
				c-2.6,13.7-5.1,30.1-7.2,48.4c-1.8,16.1-3.2,33.7-4.2,52.2h-28.7c1.2-19.2,3.4-37.5,6.6-54.2c3.6-18.7,8.4-35.4,13.6-49.2
				c5.2-13.8,10.8-24.7,15.4-32C625.4,3102.4,629.1,3098.6,631,3099z"/>
			<path id="path2966_1_" class="st7" d="M1099,3268.7c0.1-4.5,0.1-9,0-13.6c-0.1-3.2-0.3-6.5-0.5-9.7c-1.2-20-4.6-39.2-10.3-56.8
				s-13.8-33.6-23.7-47.5c-9-12.9-19.4-24.1-30-33.3c-10.5-9.2-21.2-16.5-30.6-22.2c-21.2-10-33.4-16.9-32.3-18.9
				c1.2-1.9,15.7,1.4,40.9,9c11.6,4.8,24.8,11.7,38.1,20.9c13.3,9.3,26.6,21.1,38.2,35.1c12.2,15,22.3,32.4,29.6,51.5
				c7.2,19.1,11.5,39.8,12.7,61.2c0.2,3.5,0.3,7,0.3,10.4c0.1,4.7,0,9.3-0.2,13.9H1099L1099,3268.7z"/>
			<path id="path2968_1_" class="st7" d="M1204.5,3268.7c0.7-4.5,1.5-8.9,2-13.5c3.4-26.8,4.5-52.9,3.5-77.5
				c-1.1-28.8-5.1-55.6-10.5-79.5c-5.4-23.9-12.1-44.8-18.4-62.2c-6.3-17.4-11.9-31.2-15.4-40.9c-3.5-9.7-4.8-15.2-2.6-16
				s7.7,3.4,15.4,12c7.6,8.6,17.4,21.8,27.4,39c10,17.2,20.1,38.5,28.3,63.2c8.3,24.7,14.6,52.8,17.1,83.2
				c2.1,25.9,1.7,53.4-1.9,81.5c-0.5,3.6-0.9,7.1-1.5,10.7L1204.5,3268.7L1204.5,3268.7z"/>
			<path id="path2970_1_" class="st7" d="M1296.5,3268.7c8.6-18.9,17.6-36.9,25.8-53.8c8.9-18.2,16.9-35.1,23.4-50.7
				c3.8-9.1,7.1-17.7,9.8-25.7s4.7-15.4,6.3-22.2c1.5-6.7,2.5-12.8,3.1-18.1c0.6-5.3,0.9-9.8,1.1-13.6c0.2-3.7,0.4-6.7,0.7-8.7
				c0.3-2,0.8-3.2,1.7-3.3s2.1,0.7,3.5,2.6s3,4.8,4.5,8.6c1.5,3.8,2.8,8.6,3.7,14.3c0.9,5.7,1.3,12.2,1,19.4
				c-0.3,7.3-1.1,15.3-2.7,23.9s-4,17.8-7,27.4c-5.1,16.4-11.9,34.1-19.9,52.7c-6.5,15.1-13.9,30.9-21.1,47H1296.5z"/>
			<path id="path2972_1_" class="st7" d="M1772.2,3268.7c-0.2-3.4-0.5-6.7-0.6-10.1c0-0.3,0-0.7,0-1c-1.4-28.9-2-56.5-2.8-81.7
				c-0.8-25.2-1.7-48.1-3.1-67.3c-1.4-19.2-3.2-34.7-5.5-45.4c-2.2-10.7-4.9-16.7-7.5-16.7c-2.7,0-5.2,5.9-7.6,16.6
				c-2.4,10.7-4.7,26.1-6.8,45.2c-2.1,19.1-4,42-5.2,67.3c-1.2,25.4-1.6,53.4-0.2,82.8c0,0.3,0,0.7,0,1c0.2,3.1,0.4,6.1,0.6,9.2
				L1772.2,3268.7L1772.2,3268.7z"/>
			<path id="path2974_1_" class="st7" d="M1670.5,3268.7c-0.8-14.5-2.6-28.4-5.2-41.1c-3.3-15.4-7.8-29.1-12.9-40.3
				c-5.1-11.2-10.6-19.9-15.2-25.6c-4.6-5.8-8.1-8.6-9.8-8.1c-1.7,0.5-1.4,4.2,0.2,10.6s4.1,15.2,6.7,26.3c2.6,11.1,5,24.3,6.7,39.2
				c1.4,12.1,2.3,25.3,2.9,39.1L1670.5,3268.7L1670.5,3268.7z"/>
			<path id="path2976_1_" class="st7" d="M1879.4,3034.6c-1,0-2.6,0.9-4.8,2.7c-2.4,2.1-5.5,5.5-8.9,10c-3.4,4.5-7,10.2-10.5,17.1
				s-6.8,15-9.3,24.1c-2.3,8.3-4,17.5-4.9,27.5c-0.9,9.9-0.9,20.5,0.1,31.6c1.5,16.4,4.8,33.8,10.1,51.7s12.5,36.6,20.7,55.3
				c1.7,3.8,3.4,7.6,5.1,11.3c0.7,1.5,1.4,2.9,2,4.4h33.8c-1.7-3.8-3.4-7.4-5.1-11.3c-1.7-3.7-3.2-7.4-4.9-11.2
				c-8-18.4-15.2-36.4-21-53.5c-5.7-17.1-10-33.4-12.6-48.7c-1.7-10.3-2.8-20.2-3-29.5c-0.3-9.2,0.2-17.8,1.1-25.7
				c2-17.1,6.3-30.9,9.4-40.3c1.6-4.7,2.8-8.5,3.3-11.1c0.6-2.6,0.6-4.1-0.4-4.5C1879.7,3034.6,1879.5,3034.6,1879.4,3034.6
				L1879.4,3034.6z"/>
			<path id="path2978_1_" class="st7" d="M1494.6,3036.3c0.4,0,0.9,0,1.2,0.4c0.4,0.4,0.5,1.1,0.6,1.6c0.2,0.9,0.2,2.1,0,3.4
				c-0.4,2.7-1.5,6.3-3.1,10.6c-3.2,8.5-8.7,20.3-15.3,34.5c-13,28.2-30.6,66.9-44.3,112.5c-6.6,22.2-12.2,46.1-16,70.9h-39.2
				c4.1-27.2,11.1-53.1,19.7-76.9c8.4-23.5,18.3-45,28.4-63.9c10.1-18.9,20.4-35.4,29.8-48.9c9.6-13.8,18.1-24.5,24.7-32
				c3.3-3.8,6.1-6.7,8.3-8.8c1.1-1.1,2-1.8,2.8-2.4c0.5-0.5,1.1-0.6,1.5-0.8C1494,3036.5,1494.2,3036.3,1494.6,3036.3z"/>
			<path id="path2980_1_" class="st7" d="M1565.8,3081.7c2.1,0.5,1.3,6.4-1.3,16.7c-2.7,10.3-7.2,25-12.6,43.1s-11.4,39.7-16,63.8
				c-3.9,20.1-6.7,42-7.1,64.9h-32.1c0.9-24.4,4.8-47.4,10.2-68.2c6.4-24.8,14.9-46.7,23.2-64.7c8.3-18,16.4-32.1,22.7-41.7
				C1559.1,3086.2,1563.7,3081.2,1565.8,3081.7z"/>
			<path id="path2982_1_" class="st7" d="M1969.2,3086.3c-2.4,0-4.6,4.8-6.8,13.2c-2.2,8.4-4.4,20.6-6.5,35.7s-4.2,33.1-5.8,53.2
				c-1.6,20.1-2.7,42.3-2.1,65.8c0,0.8,0.1,1.5,0.1,2.3c0.1,4,0.3,8.1,0.6,12.1h34.7c-0.2-4.2-0.4-8.3-0.6-12.6
				c0-0.8-0.1-1.5-0.1-2.2c-0.6-22.8-0.6-44.8-0.7-64.8c-0.2-20-0.5-38.1-1.5-53.3s-2.6-27.6-4.6-36.1S1971.6,3086.3,1969.2,3086.3z
				"/>
			<path id="path2984_1_" class="st7" d="M2001.1,3105.3c-2.1,0.5-2,5.6-0.5,14.4c1.5,8.8,4.2,21.4,7.1,36.9
				c2.9,15.5,5.8,34,8.1,54.7c2,18.2,3.6,38.1,4.8,59h32.4c-1.3-21.7-3.8-42.4-7.5-61.3c-4.1-21.1-9.5-40-15.4-55.6
				s-12.2-27.9-17.4-36.1C2007.3,3109.1,2003.2,3104.8,2001.1,3105.3z"/>
			<path id="path2986_1_" class="st7" d="M1099,3268.7c0.1-4.5,0.1-9,0-13.6c-0.1-3.2-0.3-6.5-0.5-9.7c-1.2-20-4.6-39.2-10.3-56.8
				s-13.8-33.6-23.7-47.5c-9-12.9-19.4-24.1-30-33.3c-10.5-9.2-21.2-16.5-30.6-22.2c-21.2-10-33.4-16.9-32.3-18.9
				c1.2-1.9,15.7,1.4,40.9,9c11.6,4.8,24.8,11.7,38.1,20.9c13.3,9.3,26.6,21.1,38.2,35.1c12.2,15,22.3,32.4,29.6,51.5
				c7.2,19.1,11.5,39.8,12.7,61.2c0.2,3.5,0.3,7,0.3,10.4c0.1,4.7,0,9.3-0.2,13.9H1099L1099,3268.7z"/>
			<path id="path2988_1_" class="st7" d="M1204.5,3268.7c0.7-4.5,1.5-8.9,2-13.5c3.4-26.8,4.5-52.9,3.5-77.5
				c-1.1-28.8-5.1-55.6-10.5-79.5c-5.4-23.9-12.1-44.8-18.4-62.2c-6.3-17.4-11.9-31.2-15.4-40.9c-3.5-9.7-4.8-15.2-2.6-16
				s7.7,3.4,15.4,12c7.6,8.6,17.4,21.8,27.4,39c10,17.2,20.1,38.5,28.3,63.2c8.3,24.7,14.6,52.8,17.1,83.2
				c2.1,25.9,1.7,53.4-1.9,81.5c-0.5,3.6-0.9,7.1-1.5,10.7L1204.5,3268.7L1204.5,3268.7z"/>
			<path id="path2990_1_" class="st7" d="M1296.5,3268.7c8.6-18.9,17.6-36.9,25.8-53.8c8.9-18.2,16.9-35.1,23.4-50.7
				c3.8-9.1,7.1-17.7,9.8-25.7s4.7-15.4,6.3-22.2c1.5-6.7,2.5-12.8,3.1-18.1c0.6-5.3,0.9-9.8,1.1-13.6c0.2-3.7,0.4-6.7,0.7-8.7
				c0.3-2,0.8-3.2,1.7-3.3s2.1,0.7,3.5,2.6s3,4.8,4.5,8.6c1.5,3.8,2.8,8.6,3.7,14.3c0.9,5.7,1.3,12.2,1,19.4
				c-0.3,7.3-1.1,15.3-2.7,23.9s-4,17.8-7,27.4c-5.1,16.4-11.9,34.1-19.9,52.7c-6.5,15.1-13.9,30.9-21.1,47H1296.5z"/>
			<path id="path2992_1_" class="st7" d="M1772.2,3268.7c-0.2-3.4-0.5-6.7-0.6-10.1c0-0.3,0-0.7,0-1c-1.4-28.9-2-56.5-2.8-81.7
				c-0.8-25.2-1.7-48.1-3.1-67.3c-1.4-19.2-3.2-34.7-5.5-45.4c-2.2-10.7-4.9-16.7-7.5-16.7c-2.7,0-5.2,5.9-7.6,16.6
				c-2.4,10.7-4.7,26.1-6.8,45.2c-2.1,19.1-4,42-5.2,67.3c-1.2,25.4-1.6,53.4-0.2,82.8c0,0.3,0,0.7,0,1c0.2,3.1,0.4,6.1,0.6,9.2
				L1772.2,3268.7L1772.2,3268.7z"/>
			<path id="path2994_1_" class="st7" d="M1670.5,3268.7c-0.8-14.5-2.6-28.4-5.2-41.1c-3.3-15.4-7.8-29.1-12.9-40.3
				c-5.1-11.2-10.6-19.9-15.2-25.6c-4.6-5.8-8.1-8.6-9.8-8.1c-1.7,0.5-1.4,4.2,0.2,10.6s4.1,15.2,6.7,26.3c2.6,11.1,5,24.3,6.7,39.2
				c1.4,12.1,2.3,25.3,2.9,39.1L1670.5,3268.7L1670.5,3268.7z"/>
			<path id="path2996_1_" class="st7" d="M1879.4,3034.6c-1,0-2.6,0.9-4.8,2.7c-2.4,2.1-5.5,5.5-8.9,10c-3.4,4.5-7,10.2-10.5,17.1
				s-6.8,15-9.3,24.1c-2.3,8.3-4,17.5-4.9,27.5c-0.9,9.9-0.9,20.5,0.1,31.6c1.5,16.4,4.8,33.8,10.1,51.7s12.5,36.6,20.7,55.3
				c1.7,3.8,3.4,7.6,5.1,11.3c0.7,1.5,1.4,2.9,2,4.4h33.8c-1.7-3.8-3.4-7.4-5.1-11.3c-1.7-3.7-3.2-7.4-4.9-11.2
				c-8-18.4-15.2-36.4-21-53.5c-5.7-17.1-10-33.4-12.6-48.7c-1.7-10.3-2.8-20.2-3-29.5c-0.3-9.2,0.2-17.8,1.1-25.7
				c2-17.1,6.3-30.9,9.4-40.3c1.6-4.7,2.8-8.5,3.3-11.1c0.6-2.6,0.6-4.1-0.4-4.5C1879.7,3034.6,1879.5,3034.6,1879.4,3034.6
				L1879.4,3034.6z"/>
			<path id="path2998_1_" class="st7" d="M1494.6,3036.3c0.4,0,0.9,0,1.2,0.4c0.4,0.4,0.5,1.1,0.6,1.6c0.2,0.9,0.2,2.1,0,3.4
				c-0.4,2.7-1.5,6.3-3.1,10.6c-3.2,8.5-8.7,20.3-15.3,34.5c-13,28.2-30.6,66.9-44.3,112.5c-6.6,22.2-12.2,46.1-16,70.9h-39.2
				c4.1-27.2,11.1-53.1,19.7-76.9c8.4-23.5,18.3-45,28.4-63.9c10.1-18.9,20.4-35.4,29.8-48.9c9.6-13.8,18.1-24.5,24.7-32
				c3.3-3.8,6.1-6.7,8.3-8.8c1.1-1.1,2-1.8,2.8-2.4c0.5-0.5,1.1-0.6,1.5-0.8C1494,3036.5,1494.2,3036.3,1494.6,3036.3z"/>
			<path id="path3000_1_" class="st7" d="M1565.8,3081.7c2.1,0.5,1.3,6.4-1.3,16.7c-2.7,10.3-7.2,25-12.6,43.1s-11.4,39.7-16,63.8
				c-3.9,20.1-6.7,42-7.1,64.9h-32.1c0.9-24.4,4.8-47.4,10.2-68.2c6.4-24.8,14.9-46.7,23.2-64.7c8.3-18,16.4-32.1,22.7-41.7
				C1559.1,3086.2,1563.7,3081.2,1565.8,3081.7z"/>
			<path id="path3002_1_" class="st7" d="M1969.2,3086.3c-2.4,0-4.6,4.8-6.8,13.2c-2.2,8.4-4.4,20.6-6.5,35.7s-4.2,33.1-5.8,53.2
				c-1.6,20.1-2.7,42.3-2.1,65.8c0,0.8,0.1,1.5,0.1,2.3c0.1,4,0.3,8.1,0.6,12.1h34.7c-0.2-4.2-0.4-8.3-0.6-12.6
				c0-0.8-0.1-1.5-0.1-2.2c-0.6-22.8-0.6-44.8-0.7-64.8c-0.2-20-0.5-38.1-1.5-53.3s-2.6-27.6-4.6-36.1S1971.6,3086.3,1969.2,3086.3z
				"/>
			<path id="path3004_1_" class="st7" d="M2001.1,3105.3c-2.1,0.5-2,5.6-0.5,14.4c1.5,8.8,4.2,21.4,7.1,36.9
				c2.9,15.5,5.8,34,8.1,54.7c2,18.2,3.6,38.1,4.8,59h32.4c-1.3-21.7-3.8-42.4-7.5-61.3c-4.1-21.1-9.5-40-15.4-55.6
				s-12.2-27.9-17.4-36.1C2007.3,3109.1,2003.2,3104.8,2001.1,3105.3z"/>
			<path id="path3006_1_" class="st7" d="M1125.1,3245.7c0.1-4.6,0.1-9.3,0-14c-0.1-3.3-0.3-6.7-0.5-10
				c-1.3-20.6-4.7-40.3-10.6-58.4s-14.2-34.5-24.3-48.8c-9.2-13.3-19.9-24.8-30.8-34.2c-10.8-9.5-21.7-16.9-31.4-22.8
				c-21.8-10.3-34.3-17.4-33.2-19.4c1.2-2,16.1,1.4,42,9.3c11.9,4.9,25.4,12,39.1,21.5c13.6,9.5,27.3,21.6,39.2,36.1
				c12.5,15.4,23,33.3,30.3,52.8c7.4,19.6,11.8,40.9,13,62.9c0.2,3.6,0.3,7.2,0.3,10.7c0.1,4.8,0,9.5-0.2,14.3H1125.1L1125.1,3245.7
				z"/>
			<path id="path3008_1_" class="st7" d="M1223.1,3245.7c0.8-5.2,1.8-10.5,2.5-15.8c4.2-31.4,5.6-61.9,4.3-90.7
				c-1.4-33.7-6.4-65-13.1-93c-6.7-28-15-52.4-22.8-72.8c-7.7-20.3-14.8-36.5-19.1-47.8c-4.3-11.3-6-17.8-3.2-18.7
				c2.8-0.9,9.6,4,19.1,14.1c9.5,10.1,21.6,25.5,34,45.6s24.9,45,35.2,73.9c10.3,28.9,18.1,61.7,21.3,97.2
				c2.7,30.3,2.1,62.4-2.3,95.3c-0.6,4.2-1.2,8.3-1.8,12.5H1223.1z"/>
			<path id="path3010_1_" class="st7" d="M1328,3245.7c8.9-19.4,18.1-37.9,26.5-55.2c9.1-18.7,17.3-36.1,24-52
				c3.9-9.3,7.3-18.1,10.1-26.4c2.8-8.2,4.9-15.8,6.4-22.8c1.6-6.9,2.6-13.1,3.2-18.6c0.6-5.4,0.9-10.1,1.1-13.9
				c0.2-3.8,0.4-6.9,0.7-9s0.8-3.2,1.8-3.4c0.9-0.1,2.2,0.7,3.6,2.7c1.4,1.9,3.1,4.9,4.6,8.8c1.5,3.9,2.8,8.8,3.8,14.7
				c0.9,5.8,1.3,12.5,1,20c-0.3,7.5-1.1,15.8-2.8,24.6c-1.7,8.8-4.1,18.3-7.2,28.1c-5.2,16.8-12.2,35-20.5,54.1
				c-6.7,15.5-14.2,31.7-21.7,48.3L1328,3245.7L1328,3245.7z"/>
			<path id="path3012_1_" class="st7" d="M1737,3245.7c-0.2-3.5-0.5-6.9-0.6-10.4c0-0.3,0-0.7,0-1.1c-1.4-29.7-2.1-58-2.9-83.9
				c-0.8-25.9-1.8-49.4-3.2-69.1c-1.4-19.7-3.3-35.6-5.6-46.6c-2.3-11-5-17.1-7.7-17.1s-5.4,6.1-7.9,17c-2.5,11-4.8,26.8-7,46.5
				s-4.1,43.1-5.4,69.2c-1.2,26.1-1.7,54.8-0.3,85.1c0,0.3,0,0.7,0,1.1c0.2,3.2,0.4,6.3,0.6,9.5H1737z"/>
			<path id="path3014_1_" class="st7" d="M1632.5,3245.7c-0.8-14.9-2.6-29.1-5.4-42.2c-3.3-15.8-8-29.9-13.3-41.4
				c-5.2-11.5-10.9-20.4-15.6-26.3c-4.7-5.9-8.4-8.8-10.1-8.3s-1.4,4.4,0.2,10.8c1.6,6.5,4.2,15.6,6.8,27c2.6,11.4,5.1,25,6.9,40.2
				c1.5,12.4,2.4,25.9,3,40.1H1632.5L1632.5,3245.7z"/>
			<path id="path3016_1_" class="st7" d="M1926.5,3005.3c-1,0-2.7,0.9-4.9,2.8c-2.5,2.2-5.7,5.6-9.1,10.2
				c-3.5,4.6-7.2,10.5-10.8,17.5c-3.6,7.1-7,15.4-9.6,24.7c-2.4,8.6-4.1,18-5,28.2c-0.9,10.2-0.9,21.1,0.1,32.5
				c1.5,16.8,5,34.7,10.4,53.1c5.4,18.5,12.8,37.5,21.2,56.8c1.7,3.9,3.4,7.8,5.2,11.6c0.7,1.5,1.4,3,2.1,4.5h34.7
				c-1.7-3.9-3.5-7.6-5.2-11.6c-1.7-3.8-3.3-7.6-5-11.5c-8.2-18.9-15.6-37.4-21.5-54.9c-5.9-17.6-10.3-34.3-12.9-50
				c-1.8-10.6-2.8-20.8-3.1-30.3c-0.3-9.5,0.2-18.3,1.1-26.4c2-17.6,6.5-31.7,9.7-41.4c1.6-4.9,2.8-8.7,3.4-11.4
				c0.6-2.7,0.6-4.2-0.4-4.6C1926.8,3005.4,1926.7,3005.3,1926.5,3005.3L1926.5,3005.3z"/>
			<path id="path3018_1_" class="st7" d="M1758.4,3007c-0.4,0-0.9,0-1.2,0.4c-0.4,0.4-0.5,1.1-0.6,1.7c-0.2,0.9-0.2,2.1,0,3.5
				c0.4,2.8,1.6,6.4,3.2,10.8c3.3,8.8,8.9,20.8,15.7,35.5c13.3,28.9,31.4,68.7,45.5,115.6c6.8,22.8,12.5,47.3,16.5,72.9h40.2
				c-4.3-27.9-11.5-54.5-20.2-79c-8.6-24.2-18.8-46.2-29.1-65.6s-21-36.4-30.6-50.3c-9.8-14.2-18.7-25.1-25.4-32.8
				c-3.4-3.9-6.3-6.9-8.5-9c-1.1-1.1-2.1-1.9-2.8-2.5c-0.5-0.6-1.1-0.6-1.5-0.8C1759,3007.3,1758.8,3007.1,1758.4,3007z"/>
			<path id="path3020_1_" class="st7" d="M1524.9,3053.7c2.1,0.5,1.4,6.6-1.4,17.2c-2.7,10.6-7.4,25.7-12.9,44.3
				c-5.5,18.6-11.7,40.8-16.4,65.5c-4,20.7-6.8,43.1-7.3,66.7h-32.9c0.9-25,4.9-48.7,10.5-70.1c6.6-25.5,15.3-47.9,23.8-66.4
				c8.5-18.5,16.8-33,23.3-42.8C1518.1,3058.3,1522.8,3053.2,1524.9,3053.7z"/>
			<path id="path3022_1_" class="st7" d="M2018.8,3058.4c-2.5,0-4.8,4.9-7,13.6c-2.2,8.7-4.5,21.2-6.7,36.7
				c-2.2,15.5-4.3,34-5.9,54.7c-1.6,20.6-2.8,43.5-2.1,67.5c0,0.8,0.1,1.6,0.1,2.4c0.1,4.2,0.3,8.3,0.6,12.4h35.7
				c-0.2-4.3-0.4-8.6-0.6-12.9c0-0.8-0.1-1.5-0.1-2.3c-0.6-23.5-0.6-46-0.8-66.5c-0.2-20.5-0.5-39.1-1.6-54.8
				c-1-15.6-2.7-28.3-4.7-37.1C2023.7,3063.3,2021.2,3058.4,2018.8,3058.4z"/>
			<path id="path3024_1_" class="st7" d="M2051.4,3077.9c-2.2,0.5-2,5.7-0.5,14.8c1.5,9.1,4.3,22,7.3,37.9s5.9,35,8.3,56.2
				c2.1,18.7,3.7,39.2,4.9,60.6h33.3c-1.4-22.2-4-43.5-7.7-62.9c-4.2-21.7-9.8-41.1-15.8-57s-12.5-28.6-17.9-37.1
				C2057.9,3081.8,2053.6,3077.4,2051.4,3077.9z"/>
			<path id="path3026_1_" class="st7" d="M1190.1,3252.8c0.1-4,0.1-8,0-12.1c-0.1-2.8-0.3-5.7-0.5-8.6c-1.1-17.7-4-34.7-9.1-50.3
				s-12.2-29.7-21-42.1c-8-11.4-17.2-21.4-26.5-29.5c-9.3-8.2-18.8-14.6-27-19.6c-18.8-8.9-29.6-15-28.6-16.7c1-1.7,13.9,1.2,36.2,8
				c10.2,4.2,21.9,10.3,33.7,18.5c11.8,8.2,23.5,18.6,33.8,31.1c10.8,13.3,19.8,28.6,26.2,45.6c6.4,16.9,10.1,35.3,11.2,54.2
				c0.2,3.1,0.2,6.2,0.3,9.2c0.1,4.2,0,8.2-0.2,12.3L1190.1,3252.8L1190.1,3252.8z"/>
			<path id="path3028_1_" class="st7" d="M1286.8,3252.8c0.6-4,1.3-7.9,1.8-11.9c3-23.8,4-46.8,3.1-68.6c-1-25.5-4.5-49.2-9.3-70.4
				s-10.7-39.7-16.3-55.1c-5.5-15.4-10.5-27.6-13.6-36.2s-4.2-13.5-2.3-14.1s6.9,3,13.6,10.7c6.7,7.6,15.4,19.3,24.3,34.5
				c8.8,15.2,17.8,34.1,25.1,55.9c7.3,21.9,12.9,46.7,15.2,73.6c1.9,22.9,1.5,47.2-1.7,72.2c-0.4,3.2-0.8,6.3-1.3,9.5H1286.8
				L1286.8,3252.8z"/>
			<path id="path3030_1_" class="st7" d="M1365,3252.8c7.6-16.7,15.6-32.7,22.8-47.6c7.8-16.1,14.9-31.1,20.7-44.9
				c3.4-8.1,6.3-15.6,8.7-22.7c2.4-7.1,4.2-13.6,5.6-19.6c1.3-5.9,2.2-11.3,2.8-16c0.6-4.7,0.8-8.7,1-12c0.2-3.3,0.4-5.9,0.6-7.7
				c0.3-1.8,0.7-2.8,1.5-2.9c0.8-0.1,1.9,0.6,3.1,2.3c1.2,1.7,2.7,4.2,4,7.6c1.3,3.4,2.4,7.6,3.2,12.6c0.8,5,1.1,10.8,0.9,17.2
				c-0.2,6.5-1,13.6-2.4,21.2s-3.5,15.8-6.2,24.2c-4.5,14.5-10.6,30.2-17.7,46.6c-5.8,13.3-12.2,27.3-18.7,41.6L1365,3252.8
				L1365,3252.8z"/>
			<path id="path3032_1_" class="st7" d="M1720,3252.8c-0.2-3-0.4-6-0.6-9c0-0.3,0-0.6,0-0.9c-1.2-25.6-1.8-50-2.5-72.3
				c-0.7-22.3-1.6-42.6-2.8-59.5s-2.8-30.7-4.8-40.2c-2-9.5-4.3-14.8-6.7-14.8s-4.6,5.2-6.8,14.7c-2.1,9.5-4.1,23.1-6,40
				c-1.9,16.9-3.6,37.1-4.6,59.6c-1.1,22.5-1.4,47.3-0.2,73.3c0,0.3,0,0.6,0,0.9c0.1,2.8,0.4,5.4,0.6,8.1L1720,3252.8L1720,3252.8z"
				/>
			<path id="path3034_1_" class="st7" d="M1629.9,3252.8c-0.7-12.8-2.3-25.1-4.6-36.4c-2.9-13.6-6.9-25.8-11.4-35.7
				c-4.5-9.9-9.4-17.6-13.4-22.7c-4-5.1-7.2-7.6-8.7-7.2c-1.5,0.4-1.2,3.8,0.2,9.4s3.6,13.4,5.9,23.2c2.3,9.8,4.4,21.5,6,34.7
				c1.3,10.7,2,22.4,2.6,34.6L1629.9,3252.8L1629.9,3252.8z"/>
			<path id="path3036_1_" class="st7" d="M1881,3045.6c-0.9,0-2.3,0.8-4.2,2.4c-2.1,1.9-4.9,4.8-7.9,8.8s-6.2,9-9.3,15.1
				c-3.1,6.1-6,13.3-8.2,21.3c-2.1,7.4-3.5,15.5-4.3,24.3c-0.8,8.8-0.8,18.2,0.1,28c1.3,14.5,4.3,29.9,9,45.8
				c4.7,15.9,11,32.4,18.3,49c1.5,3.4,3,6.7,4.5,10c0.6,1.3,1.2,2.6,1.8,3.9h29.9c-1.5-3.3-3-6.6-4.5-10c-1.5-3.3-2.8-6.6-4.3-9.9
				c-7.1-16.3-13.4-32.2-18.6-47.3c-5.1-15.1-8.8-29.5-11.1-43.1c-1.5-9.2-2.4-17.9-2.7-26.1c-0.3-8.2,0.2-15.7,1-22.7
				c1.7-15.2,5.6-27.3,8.3-35.7c1.4-4.2,2.4-7.5,2.9-9.8c0.5-2.3,0.5-3.6-0.4-3.9C1881.2,3045.6,1881.1,3045.6,1881,3045.6
				L1881,3045.6z"/>
			<path id="path3038_1_" class="st7" d="M1736,3047.1c-0.3,0-0.7,0-1.1,0.4c-0.3,0.3-0.5,1-0.6,1.4c-0.2,0.8-0.2,1.8,0,3.1
				c0.4,2.4,1.4,5.6,2.8,9.4c2.9,7.5,7.7,17.9,13.5,30.6c11.5,24.9,27.1,59.2,39.2,99.6c5.9,19.6,10.8,40.8,14.2,62.8h34.7
				c-3.7-24.1-9.9-47-17.4-68.1c-7.4-20.8-16.2-39.8-25.1-56.6c-8.9-16.8-18.1-31.4-26.4-43.3c-8.5-12.2-16.1-21.7-21.9-28.3
				c-2.9-3.4-5.4-5.9-7.3-7.8c-1-0.9-1.8-1.6-2.5-2.1c-0.4-0.5-0.9-0.6-1.3-0.7C1736.6,3047.3,1736.4,3047.1,1736,3047.1z"/>
			<path id="path3040_1_" class="st7" d="M1537.2,3087.3c1.8,0.4,1.2,5.7-1.2,14.8c-2.4,9.1-6.4,22.1-11.1,38.2
				c-4.7,16.1-10.1,35.2-14.2,56.5c-3.4,17.8-5.9,37.2-6.3,57.5h-28.4c0.8-21.6,4.2-41.9,9-60.4c5.7-22,13.2-41.3,20.5-57.2
				s14.5-28.4,20.1-36.9C1531.3,3091.3,1535.4,3086.9,1537.2,3087.3z"/>
			<path id="path3042_1_" class="st7" d="M1960.5,3091.4c-2.1,0-4.1,4.2-6.1,11.7c-1.9,7.5-3.9,18.2-5.8,31.6s-3.7,29.3-5.1,47.1
				c-1.4,17.8-2.4,37.5-1.8,58.2c0,0.7,0.1,1.4,0.1,2c0.1,3.6,0.3,7.2,0.5,10.7h30.7c-0.2-3.7-0.4-7.4-0.5-11.1c0-0.7-0.1-1.3-0.1-2
				c-0.6-20.2-0.5-39.6-0.7-57.3c-0.2-17.7-0.5-33.7-1.4-47.2c-0.9-13.5-2.3-24.4-4-32C1964.7,3095.6,1962.6,3091.4,1960.5,3091.4z"
				/>
			<path id="path3044_1_" class="st7" d="M1988.6,3108.2c-1.9,0.4-1.7,4.9-0.5,12.8c1.3,7.8,3.7,18.9,6.3,32.7
				c2.6,13.7,5.1,30.1,7.2,48.4c1.8,16.1,3.2,33.7,4.2,52.2h28.7c-1.2-19.2-3.4-37.5-6.6-54.2c-3.6-18.7-8.4-35.4-13.6-49.2
				c-5.2-13.8-10.8-24.7-15.4-32C1994.2,3111.5,1990.5,3107.8,1988.6,3108.2z"/>
			<path id="path3046_1_" class="st7" d="M1556.8,3252.8c0.6-4,1.3-7.9,1.8-11.9c3-23.8,4-46.8,3.1-68.6c-1-25.5-4.5-49.2-9.3-70.4
				c-4.8-21.1-10.7-39.7-16.3-55.1c-5.5-15.4-10.5-27.6-13.6-36.2s-4.2-13.5-2.3-14.1s6.9,3,13.6,10.7c6.7,7.6,15.4,19.3,24.3,34.5
				c8.8,15.2,17.8,34.1,25.1,55.9c7.3,21.9,12.9,46.7,15.2,73.6c1.9,22.9,1.5,47.2-1.7,72.2c-0.4,3.2-0.8,6.3-1.3,9.5H1556.8
				L1556.8,3252.8z"/>
			<path id="path3048_1_" class="st7" d="M1671.6,3045.6c-0.9,0-2.3,0.8-4.2,2.4c-2.1,1.9-4.9,4.8-7.9,8.8c-3,4-6.2,9-9.3,15.1
				c-3.1,6.1-6,13.3-8.2,21.3c-2.1,7.4-3.5,15.5-4.3,24.3c-0.8,8.8-0.8,18.2,0.1,28c1.3,14.5,4.3,29.9,9,45.8
				c4.7,15.9,11,32.4,18.3,49c1.5,3.4,3,6.7,4.5,10c0.6,1.3,1.2,2.6,1.8,3.9h29.9c-1.5-3.3-3-6.6-4.5-10c-1.5-3.3-2.8-6.6-4.3-9.9
				c-7.1-16.3-13.4-32.2-18.6-47.3c-5.1-15.1-8.8-29.5-11.1-43.1c-1.5-9.2-2.4-17.9-2.7-26.1c-0.3-8.2,0.2-15.7,1-22.7
				c1.7-15.2,5.6-27.3,8.3-35.7c1.4-4.2,2.4-7.5,2.9-9.8c0.5-2.3,0.5-3.6-0.4-3.9C1671.9,3045.6,1671.8,3045.6,1671.6,3045.6
				L1671.6,3045.6z"/>
			<path id="path3050_1_" class="st7" d="M1958.8,3058.5c0.3,0,0.7,0,1.1,0.4c0.3,0.3,0.5,1,0.6,1.4c0.2,0.8,0.2,1.8,0,3.1
				c-0.4,2.4-1.4,5.6-2.8,9.4c-2.9,7.5-7.7,17.9-13.5,30.6c-11.5,24.9-27.1,59.2-39.2,99.6c-5.9,19.6-10.8,40.8-14.2,62.8h-34.7
				c3.7-24.1,9.9-47,17.4-68.1c7.4-20.8,16.2-39.8,25.1-56.6c8.9-16.8,18.1-31.4,26.4-43.3c8.5-12.2,16.1-21.7,21.9-28.3
				c2.9-3.4,5.4-5.9,7.3-7.8c1-0.9,1.8-1.6,2.5-2.1c0.4-0.5,0.9-0.6,1.3-0.7C1958.3,3058.8,1958.5,3058.6,1958.8,3058.5z"/>
			<path id="path3052_1_" class="st7" d="M2106,3087.3c1.8,0.4,1.2,5.7-1.2,14.8c-2.4,9.1-6.4,22.1-11.1,38.2
				c-4.7,16.1-10.1,35.2-14.2,56.5c-3.4,17.8-5.9,37.2-6.3,57.5h-28.4c0.8-21.6,4.2-41.9,9-60.4c5.7-22,13.2-41.3,20.5-57.2
				c7.3-15.9,14.5-28.4,20.1-36.9C2100.2,3091.3,2104.2,3086.9,2106,3087.3z"/>
			<path id="path3054_1_" class="st7" d="M1819.1,3084.5c-2.1,0-4.1,4.2-6.1,11.7c-1.9,7.5-3.9,18.2-5.8,31.6s-3.7,29.3-5.1,47.1
				s-2.4,37.5-1.8,58.2c0,0.7,0.1,1.4,0.1,2c0.1,3.6,0.3,7.2,0.5,10.7h30.7c-0.2-3.7-0.4-7.4-0.5-11.1c0-0.7-0.1-1.3-0.1-2
				c-0.6-20.2-0.5-39.6-0.7-57.3c-0.2-17.7-0.5-33.7-1.4-47.2c-0.9-13.5-2.3-24.4-4-32C1823.4,3088.7,1821.3,3084.5,1819.1,3084.5z"
				/>
			<path id="path3056_1_" class="st7" d="M1607.7,3099c-1.9,0.4-1.7,4.9-0.5,12.8c1.3,7.8,3.7,18.9,6.3,32.7
				c2.6,13.7,5.1,30.1,7.2,48.4c1.8,16.1,3.2,33.7,4.2,52.2h28.7c-1.2-19.2-3.4-37.5-6.6-54.2c-3.6-18.7-8.4-35.4-13.6-49.2
				c-5.2-13.8-10.8-24.7-15.4-32C1613.3,3102.4,1609.6,3098.6,1607.7,3099z"/>
			<g id="g3234_1_">
				<path id="path3196_1_" class="st7" d="M279.7,3223.1c13.5,1.9,35.7,17.4,35.7-2.2c80.3-165,114.6-342.3,87.4-516.2
					c-11.6-115.7,12.1-238,108.1-335c37.2-39.6,81.7-75.4,127.1-110.3c-105.3,74.5-200.5,162.7-231.3,268
					c-29.4,87-19.6,177-13.8,265.5C394.4,2939.4,353.4,3086.3,279.7,3223.1z"/>
				<path id="path3202_1_" class="st7" d="M654.7,2400.4c-102.1,61-197.1,135.3-237.8,229.6c-13.5,28.3-22.5,57.3-28.9,86.7
					c3.5,1.4,7.1,2.7,10.7,3.9c15.9-83,54.8-164,130.1-227.9C566.7,2459.1,610.3,2429.3,654.7,2400.4z"/>
				<path id="rect3207_1_" class="st8" d="M607,2278.1L607,2278.1c10.4,5.5,12.7,15.9,5,23.3l-93.2,89.6c-7.7,7.4-22.4,9-32.8,3.5
					l0,0c-10.4-5.5-12.7-15.9-5-23.3l93.2-89.6C581.9,2274.2,596.6,2272.6,607,2278.1z"/>
				<path id="rect3209_1_" class="st8" d="M618.7,2420.9L618.7,2420.9c7.9,5.2,8.3,14,0.9,19.6l-89.4,67.5
					c-7.4,5.6-19.8,5.8-27.6,0.6l0,0c-7.9-5.2-8.3-14-0.9-19.6l89.4-67.5C598.5,2415.9,610.9,2415.6,618.7,2420.9z"/>
				<path id="path3216_1_" class="st8" d="M143.6,2828.5c0,0,0,0.1,0,0.1c-37.3,13.7-70.7,29.3-75.7,38.1c12.7,4,51.6,1.1,92-5
					c32.8,45.8,106.5,116.3,140.8,122.5c15.1,2.2,30.3,4.4,44.6,8.6l1,0.2l0.7,0.1c2.6-3.9-5-31-2.8-37
					C337.5,2926.6,181.6,2828.5,143.6,2828.5L143.6,2828.5z"/>
				<path id="path3223_1_" class="st8" d="M432.9,2887.2c8.7-3.9,18.4-6.6,27.9-9.2c28.4-9,83.9-96.7,78.4-114.9
					c-24.9,3.1-111.8,80-111.5,99.9c2.5,3.8,1.7,22.2,4.1,24.5l0.5-0.1L432.9,2887.2L432.9,2887.2L432.9,2887.2z"/>
				<path id="path3227_1_" class="st8" d="M314.2,2950.6c-5.9,1-11.5,2.5-16.7,4.2c27.1,22,52.7,45.5,73.5,70.7
					c7.3-2.1,13.9-4.7,19.5-8C369,2993.4,342.8,2971.1,314.2,2950.6z"/>
				<path id="path3232_1_" class="st8" d="M450.5,2854.3c4.8,0.8,9.4,2,13.6,3.5c-22.1,18-43,37.1-60,57.7c-6-1.7-11.3-3.9-15.9-6.5
					C405.9,2889.2,427.2,2871,450.5,2854.3z"/>
			</g>
			<g id="g3354_1_">
			</g>
			<g id="g3403_1_">
				<path id="path3247_1_" class="st7" d="M269.7,2460.7c-27.3,50.2-45.1,101-41,153.4c2.5,81.8,44.7,158.2,82.4,234.1
					c54.3,127.4,67,263.8,43.9,398c14-1.1,41.3,7.9,34.3-9.2c19.4-160.2-10.8-321.7-100.3-467.6c-52.2-96.7-73.3-205.9-17.7-308.5
					C270,2460.4,270.9,2461.2,269.7,2460.7z"/>
				<path id="path3249_1_" class="st7" d="M426.8,2452.8c-78.4,74-145,158.2-150.9,248.7c-3.1,27.4-1.5,54.5,2.9,81.4
					c4,0.5,7.9,0.9,11.9,1.3c-14.3-75.6-5.2-154.1,45.6-225.2C361.4,2521.8,393.5,2487,426.8,2452.8z"/>
				<path id="path3338_1_" class="st8" d="M376.2,2565.4c-2.9,5.9-7.9,11.8-18.3,20.2c-21.4,9.2-56.4,17.9-53.2,36.5
					c-0.2,0.3-0.3,0.4-0.5,0.6c-4.3,3.7-8.5,7.5-12.6,11.4c1.3,1.2,2.9,2.2,4.8,3.1c3.5-3.7,7.3-7.4,11.1-11
					c31.9-1.2,41.1-23.2,54.2-37.7c11.9-7.7,20.1-11.4,28.5-13.6c-6.5,1.3-14.8,3.8-23.5,7.2C371.3,2575.9,374.6,2570,376.2,2565.4z
					"/>
				<path id="path3346_1_" class="st8" d="M385.7,2736c0.1,0.6,0.1,1.1,0.2,1.7c-34.5,24-42.2,72.7-45.3,115.2
					c-2.9,3.4,0,13.9,3.2,20c-2.6,5.1-5.1,10.2-7.3,15.4c2.6,1.7,5.6,3,8.8,3.9c2.2-5.9,4.7-11.7,7.3-17.5c4.8-1.3,7-5.6,13.6-12.1
					c19.7-40.6,39.9-89.9,20.3-125c0.2-0.3,0.4-0.5,0.6-0.8c-0.3,0.2-0.5,0.4-0.8,0.5C386.1,2736.9,386,2736.4,385.7,2736
					L385.7,2736z M386,2738.4c2.4,19.3-1.3,29.9-17.3,64.3C371.8,2766,373.7,2755.3,386,2738.4z"/>
				<path id="path3364_1_" class="st8" d="M307.8,2509.5c-1.9,6.5-6.1,13.2-15.3,23c-20.7,11.7-55.7,23.8-48.9,43.3
					c-0.2,0.3-0.3,0.5-0.4,0.7c-3.9,4.3-7.5,8.7-11,13.2c1.6,1.1,3.5,2.1,5.6,2.8c3-4.3,6.3-8.5,9.6-12.7
					c33.2-4,38.7-28.1,49.7-44.6c11-9.1,18.9-13.9,27.2-16.9c-6.6,1.9-14.7,5.3-23.3,9.6C304.6,2521,307,2514.6,307.8,2509.5z"/>
				<path id="path3366_1_" class="st8" d="M183.7,2463.4c6.4,4.9,11.7,11.1,17.8,22.1c1.6,18.7-4.4,46,22,53.2
					c0.2,0.3,0.4,0.4,0.6,0.6c2.8,4.7,5.7,9.4,8.9,14c2.2-0.3,4.4-0.8,6.5-1.7c-3.2-4.2-6.2-8.5-9.1-12.8
					c14.4-21.5-10.3-38.6-23.1-54.5c-4.3-11.6-5.1-18.9-3.9-25.5c-1.6,4.9-2.3,11.6-2.2,19C195.1,2471.9,189,2466.8,183.7,2463.4z"
					/>
				<path id="path3368_1_" class="st8" d="M172.6,2613c8.9,4.3,17.1,10.3,27.9,21.5c8.5,20.7,11.7,52.2,43.7,55.6
					c0.4,0.3,0.6,0.4,0.9,0.6c4.8,4.8,9.8,9.5,15,14c2.4-0.7,4.6-1.7,6.7-3c-5.1-4.1-10-8.4-14.8-12.7c8.4-26.7-25.5-41.3-45.4-56.7
					c-8.9-12.2-12.6-20.3-13.6-27.8c0,5.8,1.6,13.4,4.4,21.7C188.4,2620.5,179.7,2615.8,172.6,2613L172.6,2613z"/>
				<path id="path3370_1_" class="st8" d="M385.1,2625.1c-4.7,5.3-11.3,10.1-23.7,16.3c-23.1,4.7-58.4,6.1-61.7,25.3
					c-0.3,0.2-0.5,0.4-0.6,0.5c-5.3,2.8-10.5,5.7-15.5,8.8c0.8,1.4,2,2.8,3.5,4c4.5-3,9.2-5.8,14-8.7c30.1,5.4,46-14.6,63-26.2
					c13.6-5.2,22.5-7.2,31-7.7c-6.5-0.1-15,0.8-24.2,2.3C377,2634.4,382,2629.4,385.1,2625.1L385.1,2625.1z"/>
				<path id="path3372_1_" class="st8" d="M291.9,2468.4c-12.7,7.8-25.2,15.7-37.5,23.8c0.5,0.2,1,0.4,1.5,0.5
					C267.7,2484.5,279.7,2476.4,291.9,2468.4z"/>
				<g id="g3374_1_">
					<path id="path3378_1_" class="st7" d="M426.8,2452.8c-78.4,74-145,158.2-150.9,248.7c-3.1,27.4-1.5,54.5,2.9,81.4
						c4,0.5,7.9,0.9,11.9,1.3c-14.3-75.6-5.2-154.1,45.6-225.2C361.4,2521.8,393.5,2487,426.8,2452.8L426.8,2452.8z"/>
				</g>
				<path id="path3401_1_" class="st8" d="M187.7,2731.3c0.2,0.5,0.5,1,0.7,1.5c47,9.1,81.5,47.7,108.2,82.6
					c4.7,1.9,7.7,11.7,8,17.9c5.3,3.4,10.6,7,15.7,10.6c-1.6,2.2-3.8,4.3-6.4,6.2c-5.5-4.3-11.1-8.3-16.9-12.4
					c-5.4,0.4-9.9-2.5-20-5.8c-41.7-27.9-88.9-63-89.3-98.9c-0.4-0.2-0.7-0.3-1-0.5c0.4,0.1,0.7,0.1,1,0.2
					C187.8,2732.2,187.7,2731.7,187.7,2731.3L187.7,2731.3z M188.8,2733.4c8.4,17.1,17.9,24.8,52.6,48.7
					C218.1,2752.1,210.2,2743.7,188.8,2733.4z"/>
			</g>
		</g>
	</g>
</g>
</svg>
